%FSTAX45Y45*%
%MOMM*%
%SFA1B1*%

%IPPOS*%
%AMD68*
4,1,4,-0.622300,0.068580,0.276860,-0.561340,0.622300,-0.068580,-0.276860,0.561340,-0.622300,0.068580,0.0*
%
%AMD69*
4,1,4,-0.012700,-0.541020,0.502920,0.195580,0.012700,0.541020,-0.502920,-0.195580,-0.012700,-0.541020,0.0*
%
%ADD10R,1.099998X1.099998*%
%ADD13C,0.660399*%
%ADD14O,1.117598X2.209796*%
%ADD15O,1.117598X1.904996*%
%ADD16C,1.699997*%
%ADD17C,0.524999*%
%ADD18C,0.699999*%
%ADD24C,1.599997*%
%ADD29R,0.304799X1.142998*%
%ADD51C,1.623997*%
%ADD52R,1.624997X0.799998*%
%ADD53R,1.149998X1.499997*%
%ADD54R,1.349997X1.849996*%
%ADD55R,1.499997X0.699999*%
%ADD56R,0.799998X1.649997*%
%ADD57R,1.649997X0.799998*%
%ADD58R,0.699999X1.299997*%
%ADD59R,1.849996X1.349997*%
%ADD60R,1.099998X1.099998*%
%ADD61R,1.299997X0.699999*%
%ADD62R,0.649999X0.699999*%
%ADD63R,0.699999X0.649999*%
%ADD64R,0.399999X1.574997*%
%ADD65R,1.574997X0.399999*%
%ADD66R,2.612995X3.501993*%
%ADD67R,1.199998X1.399997*%
G04~CAMADD=68~9~0.0~0.0~433.1~236.2~0.0~0.0~0~0.0~0.0~0.0~0.0~0~0.0~0.0~0.0~0.0~0~0.0~0.0~0.0~145.0~490.0~441.0*
%ADD68D68*%
G04~CAMADD=69~9~0.0~0.0~354.3~236.2~0.0~0.0~0~0.0~0.0~0.0~0.0~0~0.0~0.0~0.0~0.0~0~0.0~0.0~0.0~235.0~396.0~425.0*
%ADD69D69*%
%LNpcb1-1*%
%LPD*%
G36*
X-000455307Y-003693518D02*
X-000516267D01*
Y-003807818*
X-000455307*
Y-003693518*
G37*
G36*
X-000374817D02*
X-000435777D01*
Y-003807818*
X-000374817*
Y-003693518*
G37*
G36*
X000105778Y-003807818D02*
Y-003693518D01*
X000044818*
Y-003807818*
X000105778*
G37*
G36*
X000125308D02*
X000186268D01*
Y-003693518*
X000125308*
Y-003807818*
G37*
G54D10*
X001847499Y000714999D03*
X001422499D03*
X000197497D03*
X-000202498D03*
X001022499D03*
X000597499D03*
X-000602498D03*
X-000919998Y-000829998D03*
X-000809998Y-001379999D03*
X-000969998D03*
X-000759998Y-000829998D03*
X-002356449Y-000483567D03*
X-002281448Y001516428D03*
Y001066429D03*
X-002256449Y002041428D03*
X-002281438Y002566428D03*
X-002306449Y000566427D03*
X-002344607Y000049547D03*
X-003191438Y002466428D03*
X-002416449Y002041428D03*
X-002441437Y002566428D03*
X-003266447Y-000583567D03*
X-003106447D03*
X-002516449Y-000483567D03*
X-002441437Y001066429D03*
X-003166447Y001941428D03*
X-003006448D03*
X-003254608Y-000050449D03*
X-003094609D03*
X-003031439Y002466428D03*
X-002441437Y001516428D03*
X-003191438Y000466427D03*
X-003031449D03*
X-002504607Y000049547D03*
X-003191449Y000966429D03*
X-003031449D03*
X-002466449Y000566427D03*
X-003191449Y001441429D03*
X-003031449D03*
X001882498Y001839998D03*
X001722498D03*
X-000702497D03*
X000097497D03*
X-000302498D03*
X001297498D03*
X000897498D03*
X000497499D03*
X001457497D03*
X001057498D03*
X000657499D03*
X000257497D03*
X-000142499D03*
X-000542498D03*
X002007499Y000714999D03*
X001582498D03*
X001182499D03*
X000757499D03*
X000357499D03*
X-000042499D03*
X-000442498D03*
G54D13*
X000123997Y-003859768D03*
X-000453999D03*
G54D14*
X000266999Y-003809768D03*
X-000596999D03*
G54D15*
X000266999Y-004224769D03*
X-000596999D03*
G54D16*
X-002189998Y-001829998D03*
X-001689999D03*
G54D17*
X001838538Y-002147128D03*
X001666458Y-002392867D03*
G54D18*
X-001657499Y-002167498D03*
X000609998Y-002629999D03*
X000934999Y-001704997D03*
X001034999D03*
X000834999D03*
X-003687297Y001550197D03*
X-003689997Y001344998D03*
Y001420068D03*
X-001102499Y-000684999D03*
X-001372499Y-000744999D03*
X001559999Y003066719D03*
X002830819Y002239109D03*
X002534998Y002269998D03*
X002234999D03*
X000802497Y-003507498D03*
X-000339999Y-003479998D03*
X-000489999Y-003304999D03*
X-001339999Y-002754998D03*
X-000039999Y-003479998D03*
X002259998Y000269999D03*
X-000564997Y-001979998D03*
X-00254Y002819999D03*
X-001039997Y000394997D03*
X002109998Y-000662698D03*
X001909998D03*
X002208088D03*
X001809998D03*
X002009998D03*
X001163848Y-000783849D03*
X001384998Y-000629998D03*
X001234998Y-000729998D03*
X-000764999Y-000579998D03*
X-002014999Y-001179997D03*
X002234999Y001294998D03*
X-000864999Y001104999D03*
X-000714999Y-001954999D03*
X-002014999Y-001379999D03*
X-000964999Y000319999D03*
X000659998Y-000529998D03*
X-001189997Y000394997D03*
X-000214998Y-000629998D03*
X-003689997Y001244998D03*
Y001644997D03*
Y001744997D03*
Y001844997D03*
X001959998Y003094997D03*
X002059998D03*
X002834998Y001294998D03*
X002334999D03*
X002734998D03*
X002634998D03*
X002434998D03*
X002534998D03*
X002334999Y002269998D03*
X002734998D03*
X002634998D03*
X002434998D03*
X002759999Y000269999D03*
X002859999D03*
X002359997D03*
X002459997D03*
X002559999D03*
X002659999D03*
X001659999Y003094997D03*
G54D24*
X-000014998Y-001929998D03*
G54D29*
X-000290029Y-003750668D03*
X-000240019D03*
X-000190009D03*
X-000139989D03*
X-000089979D03*
X000010038D03*
X-000340039D03*
X-000039969D03*
G54D51*
X-000939998Y-000307497D03*
X-001289999Y-001754997D03*
X000484997Y-001229997D03*
X-000864999Y-001579999D03*
G54D52*
X-001186197Y-002891497D03*
Y-003145497D03*
X-000643798D03*
X-001186197Y-002764497D03*
X-000643798Y-003018497D03*
Y-002891497D03*
Y-002764497D03*
X-001186197Y-003018497D03*
G54D53*
X-001557497Y-003004997D03*
X-000332498Y-002779999D03*
X-001372499Y-003004997D03*
X-000332498Y-003154997D03*
X-000897498Y-001029997D03*
X-001082499D03*
X-000147497Y-003154997D03*
Y-002779999D03*
G54D54*
X-002332499Y-001554998D03*
X-002082497Y-002104999D03*
X-001032499Y-003404999D03*
X-000747499D03*
X-002047499Y-001554998D03*
X-001797499Y-002104999D03*
G54D55*
X-001889998Y-001279999D03*
X-001639999Y-001374998D03*
Y-001184998D03*
X-001889998D03*
Y-001374998D03*
G54D56*
X000771499Y-000152499D03*
X001279499Y000392498D03*
X000898499Y-000152499D03*
X001025499D03*
X000644499D03*
X000390499D03*
X001152499D03*
X000517499D03*
X001152499Y000392498D03*
X001025499D03*
X000898499D03*
X000771499D03*
X000644499D03*
X000517499D03*
X000390499D03*
X001279499Y-000152499D03*
G54D57*
X-001762498Y001539499D03*
X-001217498Y001031499D03*
Y001158499D03*
Y001285499D03*
Y000650499D03*
Y001412499D03*
X-001762498Y001285499D03*
Y000650499D03*
Y000777499D03*
Y000904499D03*
Y001031499D03*
Y001158499D03*
X-001217498Y001539499D03*
Y000904499D03*
Y000777499D03*
X-001762498Y001412499D03*
G54D58*
X001832498Y001214998D03*
X001407497Y001211419D03*
X000557499Y001214998D03*
X001007498Y001211419D03*
X000157497Y001214998D03*
X-000642498D03*
X-000242498D03*
X001348917Y002589999D03*
X001748919D03*
X001653918Y002339997D03*
X001843918D03*
X-000746079D03*
X000057497D03*
X000457499D03*
X000857498D03*
X001253919D03*
X-000342498D03*
X001927499Y001464998D03*
X001443918Y002339997D03*
X001502498Y001461419D03*
X0009525Y002589999D03*
X001047498Y002339997D03*
X001102499Y001461419D03*
X000552498Y002589999D03*
X000647499Y002339997D03*
X000652498Y001464998D03*
X000152499Y002589999D03*
X000247497Y002339997D03*
X000252498Y001464998D03*
X-000247497Y002589999D03*
X-000152499Y002339997D03*
X-000147497Y001464998D03*
X-000651078Y002589999D03*
X-000556079Y002339997D03*
X-000547499Y001464998D03*
X002022497Y001214998D03*
X001597499Y001211419D03*
X001197498D03*
X000747499Y001214998D03*
X000347499D03*
X-000052499D03*
X-000452498D03*
G54D59*
X-001414998Y-001137498D03*
Y-001422499D03*
G54D60*
X-002086449Y001886427D03*
X-002111448Y002411427D03*
Y001361429D03*
X-002114999Y000914999D03*
X-002139998Y000414997D03*
X-002189998Y-000109999D03*
X-002186449Y-000638568D03*
X-000214998Y-001959998D03*
Y-001799998D03*
X-002186449Y-000478569D03*
X-002111448Y001521429D03*
X-002114999Y001074999D03*
X-002086449Y002046429D03*
X-002111448Y002571429D03*
X-002139998Y000574997D03*
X-002189998Y000049999D03*
X001877499Y002009998D03*
Y002169998D03*
X001452499Y002009998D03*
Y002169998D03*
X001052499Y002009998D03*
Y002169998D03*
X000652498Y002009998D03*
Y002169998D03*
X000252498Y002009998D03*
Y002169998D03*
X-000147497Y002009998D03*
Y002169998D03*
X-000547499Y002009998D03*
Y002169998D03*
X002027499Y000884999D03*
Y001044999D03*
X001602498D03*
Y000884999D03*
X001177498Y001044999D03*
Y000884999D03*
X000752497Y001044999D03*
Y000884999D03*
X000352498Y001044999D03*
Y000884999D03*
X-000047498Y001044999D03*
Y000884999D03*
X-000447499Y001044999D03*
Y000884999D03*
G54D61*
X-002586448Y001846427D03*
X-002611447Y002376429D03*
Y001341429D03*
Y000871428D03*
Y000366428D03*
X-002674609Y-000145448D03*
X-002686448Y-000673569D03*
X-002936448Y-000578568D03*
X-002686448Y-000483567D03*
X-002861449Y000966429D03*
X-002611447Y001061427D03*
X-002861449Y002471427D03*
X-002611447Y002566428D03*
X-002861449Y000461429D03*
X-002611447Y000556427D03*
X-002836448Y001941428D03*
X-002586448Y002036429D03*
X-002924609Y-000050449D03*
X-002674609Y000044549D03*
X-002861449Y001436428D03*
X-002611447Y001531429D03*
G54D62*
X-000739998Y-001124999D03*
X000459999Y-001384998D03*
Y-001474998D03*
X-000739998Y-001034999D03*
G54D63*
X-000344998Y-001779998D03*
X-000884999Y-001229997D03*
X000064998Y-000579998D03*
X000154998D03*
X-000794999Y-001229997D03*
X-000434997Y-001779998D03*
G54D64*
X000084998Y-000757397D03*
X-000364998Y-001604998D03*
X-000314998D03*
X-000264998D03*
X-000214998D03*
X-000164998D03*
X-000114998D03*
X-000064998D03*
X-000014998D03*
X000034998D03*
X000084998D03*
X000134998D03*
X000034998Y-000757397D03*
X-000014998D03*
X-000064998D03*
X-000114998D03*
X-000164998D03*
X-000214998D03*
X-000264998D03*
X-000414997D03*
Y-001604998D03*
X000134998Y-000757397D03*
X-000314998D03*
X-000364998D03*
G54D65*
X000283799Y-001406199D03*
X-000563798Y-001106197D03*
Y-001156197D03*
X000283799Y-001356199D03*
Y-001306197D03*
Y-001256197D03*
Y-001206197D03*
Y-001156197D03*
Y-001106197D03*
Y-001056198D03*
Y-001006198D03*
Y-000956198D03*
Y-000906198D03*
X-000563798D03*
Y-000956198D03*
Y-001006198D03*
Y-001056198D03*
Y-001206197D03*
Y-001256197D03*
Y-001306197D03*
Y-001356199D03*
Y-001406199D03*
Y-001456199D03*
X000283799D03*
G54D66*
X-000914999Y-002954997D03*
G54D67*
X000289999Y-003154997D03*
Y-002779999D03*
X000079999Y-003154997D03*
Y-002779999D03*
G54D68*
X001730009Y-001979579D03*
X001471899Y-002348199D03*
X001557939Y-002225329D03*
G54D69*
X001468607Y-002492377D03*
X001640629Y-002612829D03*
X002036399Y-002047618D03*
X001864367Y-001927169D03*
M02*