%FSTAX45Y45*%
%MOMM*%
%SFA1B1*%

%IPPOS*%
%ADD11R,0.799998X1.699997*%
%ADD13C,0.660399*%
%ADD14O,1.117598X2.209796*%
%ADD15O,1.117598X1.904996*%
%ADD19R,0.999998X0.999998*%
%ADD20R,1.299997X1.099998*%
%ADD21C,0.499999*%
%ADD22C,0.253999*%
%ADD23C,0.349999*%
%ADD24C,1.599997*%
%ADD25C,0.424999*%
%ADD26C,0.599999*%
%LNpcb1-1*%
%LPD*%
G36*
X001858929Y003880027D02*
X002009007Y003865989D01*
X002157948Y003842898*
X002305237Y003810838*
X002450307Y003769928*
X002592638Y003720327*
X002731709Y003662199*
X002866999Y003595768*
X002998038Y003521268*
X003124319Y003438989*
X003245398Y003349218*
X003360828Y003252289*
X003470178Y003148548*
X003573048Y003038398*
X003669078Y002922209*
X003757899Y002800438*
X003839199Y002673507*
X003912669Y002541899*
X003978038Y002406088*
X004035069Y002266569*
X004083568Y002123848*
X004123339Y001978469*
X004154248Y001830938*
X004176168Y001681817*
X004189039Y001531637*
X004192798Y001380959*
X004187428Y001230327*
X004172968Y001080289*
X004149448Y000931407*
X004116979Y000784227*
X004075658Y000639269*
X004025648Y000497078*
X003967119Y000358178*
X003900309Y000223067*
X003863619Y000158958*
X-000119999Y-005226999*
X-000134998*
X-003583708Y-000564248*
X-003572349Y-000554459*
X-003434369Y-000692439*
X-003419477Y-000702388*
X-003401918Y-000705878*
X-002563289*
X-002560878Y-000708289*
Y-001504998*
X-002557388Y-001522559*
X-002547439Y-001537439*
X-002432438Y-001652437*
X-002417559Y-001662389*
X-002399997Y-001665879*
X-001588289*
X-001585879Y-001668289*
Y-001780339*
X-001600878Y-001784357*
X-001609979Y-001768599*
X-001628599Y-001749978*
X-001651398Y-001736818*
X-001676839Y-001729999*
X-001703169*
X-001728599Y-001736818*
X-001751398Y-001749978*
X-001770019Y-001768599*
X-001783189Y-001791398*
X-001789998Y-001816839*
Y-001843168*
X-001783189Y-001868599*
X-001770019Y-001891398*
X-001751398Y-001910019*
X-001728599Y-001923178*
X-001703169Y-001929998*
X-001676839*
X-001651398Y-001923178*
X-001628599Y-001910019*
X-001609979Y-001891398*
X-001600878Y-001875637*
X-001585879Y-001879658*
Y-002304999*
X-001582389Y-002322558*
X-001572437Y-002337437*
X-001347439Y-002562438*
X-001332557Y-002572387*
X-001314998Y-002575877*
X-001245369*
X-001239629Y-002589738*
X-001358379Y-002708488*
X-001368318Y-002712608*
X-001382389Y-002726679*
X-001389999Y-002745049*
Y-002764947*
X-001382389Y-002783319*
X-001368318Y-002797388*
X-001349938Y-002804998*
X-001330048*
X-001311678Y-002797388*
X-001297609Y-002783319*
X-001293489Y-002773377*
X-001160998Y-002640878*
X-000995928*
X-000535879Y-003100928*
Y-003285109*
X-000539998Y-003295048*
Y-003314948*
X-000532389Y-003333318*
X-000518317Y-003347389*
X-000499948Y-003354999*
X-000480049*
X-000461678Y-003347389*
X-000447608Y-003333318*
X-000439999Y-003314948*
Y-003295048*
X-000444119Y-003285109*
Y-003120369*
X-000430258Y-003114629*
X-000249999Y-003294888*
Y-003379998*
X-000079999*
Y-003229998*
X-000185107*
X-000231259Y-003183859*
X-000225518Y-003169998*
X-000079999*
Y-003140877*
X000144998*
X00016256Y-003137387*
X000177439Y-003127438*
X000628378Y-002676509*
X000638319Y-002672389*
X000652388Y-002658318*
X000659998Y-002639949*
Y-002620048*
X000652388Y-002601678*
X000638319Y-002587609*
X000619947Y-002579999*
X000600049*
X000581677Y-002587609*
X000567608Y-002601678*
X000563488Y-002611617*
X000125999Y-003049117*
X-000079999*
Y-003019999*
X-000249999*
Y-003145518*
X-000263857Y-003151258*
X-000900369Y-002514739*
X-000894628Y-002500878*
X000674999*
X000692558Y-002497388*
X000707438Y-002487439*
X000814887Y-002379997*
X000919998*
Y-002229998*
X000749998*
Y-002315108*
X000655988Y-002409118*
X-000194627*
X-000200367Y-002395258*
X-000185107Y-002379997*
X-000079999*
Y-002229998*
X-000249999*
Y-002315108*
X-000343999Y-002409118*
X-001116708*
X-001119118Y-002406708*
Y-002379997*
X-001079997*
Y-002229998*
X-001249997*
Y-002379997*
X-001210878*
Y-002409118*
X-001270998*
X-001419118Y-002260988*
Y-001584289*
X-001422608Y-001566727*
X-00143256Y-001551848*
X-001444658Y-001539737*
X-001438917Y-001525879*
X-000833518*
X-000829198Y-001534119*
X-000828149Y-001540878*
X-000841387Y-001554119*
X-000848619Y-001564939*
X-000851159Y-001577698*
Y-001852178*
X-000848619Y-001864939*
X-000841387Y-001875759*
X-000764999Y-001952147*
Y-001964949*
X-000757389Y-001983318*
X-000743318Y-001997389*
X-000724949Y-002004999*
X-000705048*
X-000686678Y-001997389*
X-000672609Y-001983318*
X-000664999Y-001964949*
Y-001955289*
X-000649998Y-001949069*
X-000614997Y-001984067*
Y-001989947*
X-000607387Y-002008319*
X-000593318Y-002022388*
X-000574949Y-002029998*
X-000555048*
X-000536679Y-002022388*
X-000522607Y-002008319*
X-000514997Y-001989947*
Y-001970049*
X-000522607Y-001951677*
X-000536679Y-001937608*
X-000555048Y-001929998*
X-000560928*
X-000637959Y-001852957*
X-000650369Y-001844677*
X-000664999Y-001841769*
X-000704268*
Y-001650728*
X000798959*
X000799289Y-001651248*
X000803559Y-001665729*
X000792609Y-001676679*
X000788489Y-001686618*
X000674458Y-001800659*
X000664509Y-001815538*
X000661019Y-001833097*
Y-001884809*
X000561708Y-001984118*
X-000034429*
X-000050987Y-001967557*
X-000065869Y-001957608*
X-000083428Y-001954118*
X-000246567*
X-000264129Y-001957608*
X-000279008Y-001967557*
X-000302437Y-001990989*
X-000312389Y-002005868*
X-000315879Y-002023427*
Y-002046709*
X-000318289Y-002049119*
X-001079997*
Y-002019998*
X-001249997*
Y-002169998*
X-001079997*
Y-002140879*
X-000299288*
X-000281729Y-002137389*
X-000266849Y-002127437*
X-000263857Y-002124458*
X-000249999Y-002130198*
Y-002169998*
X-000079999*
Y-002140879*
X000700709*
X000718268Y-002137389*
X000733148Y-002127437*
X000736137Y-002124458*
X000749998Y-002130198*
Y-002169998*
X000919998*
Y-002084887*
X001067437Y-001937438*
X001077389Y-001922559*
X001080879Y-001905*
Y-001724888*
X001084999Y-001714949*
Y-001695048*
X001077389Y-001676679*
X001066439Y-001665729*
X001070709Y-001651248*
X001071039Y-001650728*
X001787499*
X00180213Y-001647819*
X001814537Y-001639539*
X002710837Y-000743229*
X002934997*
X002949628Y-000740318*
X002962038Y-000732038*
X003262038Y-000432038*
X003270318Y-000419628*
X003273229Y-000404997*
Y000269999*
X003270318Y000284629*
X003262038Y000297037*
X003040727Y000518337*
Y002184097*
X003037819Y002198728*
X003029539Y002211138*
X002885937Y002354737*
X002873529Y002363017*
X002858899Y002365928*
X002809808*
X002793707Y002382039*
X0027813Y002390317*
X002766669Y002393228*
X002168227*
Y002726979*
X002169538Y002728277*
X002177818Y002740677*
X002180739Y002755308*
Y003129168*
X002177818Y003143798*
X002169538Y003156209*
X002121209Y003204537*
X002108799Y003212818*
X002094169Y003215728*
X001554109*
X001539478Y003212818*
X001527078Y003204537*
X001499989Y003177448*
X001395839*
X001363748Y003209528*
X001351348Y003217819*
X001336718Y003220727*
X000677839*
X000663209Y003217819*
X000650798Y003209528*
X000381998Y002940728*
X-000832208*
X-001016007Y003124537*
X-001028407Y003132818*
X-001043048Y003135729*
X-001286949*
X-001301589Y003132818*
X-001313987Y003124537*
X-001387789Y003050738*
X-002251748*
X-002266378Y003047819*
X-002278778Y003039539*
X-002357498Y002960819*
X-002365778Y002948419*
X-002368689Y002933788*
Y002914548*
X-002425009Y002858228*
X-002507518*
X-002511679Y002862389*
X-002530048Y002869999*
X-002549949*
X-002568318Y002862389*
X-002572478Y002858228*
X-002659999*
Y002924997*
X-002779999*
Y002714998*
X-002659999*
Y002781769*
X-002572478*
X-002568318Y002777609*
X-002549949Y002769999*
X-002530048*
X-002511679Y002777609*
X-002507518Y002781769*
X-002409169*
X-002394539Y002784678*
X-002382139Y002792958*
X-002303419Y002871678*
X-002295138Y002884078*
X-002292228Y002898708*
Y002917949*
X-002263858Y002946318*
X-002249998Y002940578*
Y002829999*
X-002144887*
X-002142439Y002827558*
X-002127559Y002817609*
X-002109998Y002814119*
X-001412897*
X-001395338Y002817609*
X-001380459Y002827558*
X-001264998Y002943009*
X-001249997Y002936798*
Y002829999*
X-001154889*
X-001108737Y002783857*
X-001114478Y002769999*
X-001249997*
Y002619999*
X-001144889*
X-001129629Y002604739*
X-001135369Y002590878*
X-001985998*
X-002079998Y002684889*
Y002769999*
X-002249998*
Y002619999*
X-002144887*
X-002069889Y002544998*
X-002569009Y002045878*
X-003160999*
X-003170488Y002060879*
X-003169158Y002067577*
Y002786189*
X-003168688Y002786659*
X-003119998*
Y002714998*
X-002999999*
Y002924997*
X-003119998*
Y002853339*
X-003182498*
X-003195259Y002850799*
X-003206069Y002843568*
X-003226069Y002823578*
X-003233298Y002812757*
X-003235838Y002799999*
Y002086038*
X-003395479*
X-003408238Y002083498*
X-003419048Y002076279*
X-003551989Y001943338*
X-003712499*
X-003725257Y001940798*
X-003736068Y001933577*
X-003883578Y001786079*
X-003890799Y001775259*
X-003893339Y001762498*
Y001494878*
X-003890799Y001482117*
X-003883578Y001471297*
X-003868699Y001456418*
X-003857879Y001449199*
X-003845118Y001446659*
X-003746599*
X-003738267Y001434188*
X-003739997Y001430009*
Y001410119*
X-003732387Y001391749*
X-003723177Y001382529*
X-003732387Y001373319*
X-003739997Y001354947*
Y001335049*
X-003732387Y001316677*
X-003718318Y001302608*
Y001287388*
X-003732387Y001273319*
X-003739997Y001254947*
Y001235049*
X-003732387Y001216677*
X-003718318Y001202608*
X-003699949Y001194998*
X-003680048*
X-003675867Y001196728*
X-003660879Y001191458*
Y-000434687*
X-003675877Y-000439638*
X-004118617Y000158958*
X-004155307Y000223067*
X-004222127Y000358178*
X-004280649Y000497078*
X-004330659Y000639269*
X-004371977Y000784227*
X-004404448Y000931407*
X-004427969Y001080289*
X-004442429Y001230327*
X-004447799Y001380959*
X-004444039Y001531637*
X-004431169Y001681817*
X-004409249Y001830938*
X-004378337Y001978469*
X-004338568Y002123848*
X-004290067Y002266569*
X-004233039Y002406088*
X-004167667Y002541899*
X-004094198Y002673507*
X-004012907Y002800438*
X-003924079Y002922209*
X-003828059Y003038388*
X-003725179Y003148548*
X-003615829Y003252289*
X-003500399Y003349218*
X-003379317Y003438989*
X-003253038Y003521268*
X-003121997Y003595768*
X-002986709Y003662199*
X-002847639Y003720327*
X-002705308Y003769928*
X-002560238Y003810838*
X-002412959Y003842898*
X-002264008Y003865989*
X-002113927Y003880027*
X-001963287Y003884968*
X-001812617Y003880779*
X-001662478Y003867487*
X-001513418Y003845138*
X-001365978Y00381381*
X-001220708Y003773629*
X-001078128Y003724729*
X-000938778Y003667297*
X-000803148Y003601539*
X-000671748Y003527699*
X-000545048Y003446048*
X-000423529Y003356879*
X-000307619Y003260519*
X-000197749Y003157329*
X-000146039Y003102508*
X-000145427Y003102068*
X-000144988Y003101459*
X-000141389Y003099208*
X-000137939Y003096747*
X-000137198Y003096577*
X-000136558Y003096178*
X-000132379Y003095467*
X-000128239Y003094517*
X-000127497Y003094649*
X-000126758Y003094517*
X-000122618Y003095467*
X-000118437Y003096178*
X-000117797Y003096577*
X-000117058Y003096747*
X-000113609Y003099198*
X-000110009Y003101459*
X-000109567Y003102079*
X-000108958Y003102508*
X-000057238Y003157339*
X000052618Y003260519*
X000168529Y003356879*
X000290047Y003446048*
X000416747Y003527699*
X000548149Y003601539*
X000683778Y003667297*
X000823127Y003724729*
X000965708Y003773629*
X001110978Y00381381*
X001258417Y003845138*
X001407477Y003867487*
X001557619Y003880779*
X001708289Y003884968*
X001858929Y003880027*
G37*
G36*
X-001378518Y002959267D02*
X-001431899Y002905879D01*
X-002079998*
Y002974268*
X-001384729*
X-001378518Y002959267*
G37*
G36*
X-000262448Y002059119D02*
X-000272437Y002052439D01*
X-000374009Y001950877*
X-001079997*
Y001979998*
X-001243898*
X-001250188Y001994918*
X-001170998Y002074118*
X-000266999*
X-000262448Y002059119*
G37*
G36*
X000749998Y002940367D02*
Y002829999D01*
X000919998*
Y002859117*
X001228168*
X001242829Y002849328*
X001260388Y002845828*
X001667428*
X001684977Y002849328*
X001699869Y002859267*
X001736138Y002895549*
X001749999Y002889808*
Y002829999*
X001919998*
Y002859117*
X002030709*
X002048268Y002862607*
X002063148Y002872559*
X002089269Y002898668*
X002101789Y002894919*
X002104268Y002893077*
Y002771147*
X002102959Y002769849*
X002094679Y002757439*
X002091768Y002742808*
Y002375499*
X002094679Y002360869*
X002102959Y002348468*
X002120549Y002330879*
X002117399Y002319439*
X002114867Y002315878*
X001609999*
X001592437Y002312388*
X001577558Y002302438*
X001540997Y002265878*
X000147497*
X000129938Y002262388*
X000115059Y002252438*
X000103499Y002240879*
X-001214998*
X-001232557Y002237389*
X-001247439Y002227437*
X-001408998Y002065878*
X-002239998*
X-002257559Y002062388*
X-002272438Y002052439*
X-002373998Y001950877*
X-002515509*
X-002520058Y001965878*
X-002517559Y001967557*
X-001985998Y002499118*
X001674997*
X001692559Y002502608*
X001707438Y002512557*
X001814888Y002619999*
X001919998*
Y002769999*
X001749999*
Y002684889*
X001655988Y002590878*
X000805367*
X000799627Y002604739*
X000814887Y002619999*
X000919998*
Y002769999*
X000749998*
Y002684889*
X000655988Y002590878*
X-000985997*
X-001079997Y002684889*
Y002735519*
X-001066139Y002741259*
X-001029368Y002704477*
X-001014478Y002694538*
X-000996919Y002691038*
X000462069*
X000479628Y002694538*
X000494507Y002704477*
X000736137Y002946107*
X000749998Y002940367*
G37*
G36*
X002964268Y002168258D02*
Y001002609D01*
X002957367Y000998598*
X002949267Y000997059*
X002926039Y001020279*
Y001318897*
X002923499Y001331658*
X002916278Y001342478*
X002882478Y001376268*
X002871657Y001383499*
X002858899Y001386039*
X002211097*
X002198339Y001383499*
X002194659Y001381038*
X001616748*
X001603989Y001378498*
X001593179Y001371279*
X001472938Y001251038*
X001098809*
X001078577Y001271277*
X001067757Y001278498*
X001054999Y001281038*
X000650829*
X000638068Y001278498*
X000627258Y001271277*
X000547227Y001191249*
X000048808*
X000033779Y001206268*
X000022969Y001213497*
X000010208Y001216037*
X-000322249*
X-000334998Y001213497*
X-000345818Y001206268*
X-000413748Y001138339*
X-000827628*
X-000836678Y001147389*
X-000855047Y001154998*
X-000874938*
X-000893318Y001147389*
X-000907389Y001133317*
X-000914999Y001114948*
Y001095049*
X-000914298Y001093348*
X-000922629Y001080879*
X-000994069*
X-001010627Y001097437*
X-001025519Y001107389*
X-001043078Y001110879*
X-001273489*
X-001291048Y001107389*
X-001305938Y001097437*
X-001367439Y001035939*
X-001374477Y001025408*
X-001383997Y001015878*
X-002034428*
X-002050989Y001032438*
X-002065868Y001042388*
X-002083429Y001045878*
X-002246569*
X-002264128Y001042388*
X-002279009Y001032438*
X-002302438Y001009009*
X-002312388Y000994128*
X-002315878Y000976569*
Y000953289*
X-002318288Y000950879*
X-003079998*
Y000979998*
X-003238718*
Y001461759*
X-003224857Y001467497*
X-003219909Y001462559*
X-003205027Y001452608*
X-003187468Y001449118*
X002624998*
X002642557Y001452608*
X002657439Y001462559*
X002814888Y001619999*
X002919999*
Y001769999*
X002749999*
Y001684888*
X002605989Y001540878*
X001755368*
X001749628Y001554739*
X001814888Y001619999*
X001919998*
Y001769999*
X001749999*
Y001684888*
X001605988Y001540878*
X000755368*
X000749627Y001554739*
X000814887Y001619999*
X000919998*
Y001769999*
X000749998*
Y001684888*
X000605988Y001540878*
X-000244629*
X-000250367Y001554739*
X-000185107Y001619999*
X-000079999*
Y001769999*
X-000249999*
Y001684888*
X-000393999Y001540878*
X-001244627*
X-001250368Y001554739*
X-001185108Y001619999*
X-001079997*
Y001769999*
X-001249997*
Y001684888*
X-001394007Y001540878*
X-002235639*
X-002243648Y001555879*
X-002242609Y001557439*
X-002241349Y001563758*
X-002185108Y001619999*
X-002079998*
Y001769999*
X-002249998*
Y001684888*
X-002317437Y001617438*
X-002327389Y001602559*
X-002328649Y001596237*
X-002383998Y001540878*
X-003116709*
X-00311912Y001543288*
Y001619999*
X-003079998*
Y001769999*
X-003249998*
Y001642018*
X-003263859Y001636268*
X-003272248Y001644667*
X-003287138Y001654619*
X-003304697Y001658109*
X-003337448*
X-003456787Y001777438*
X-003471669Y001787387*
X-003489228Y001790877*
X-003501638*
X-003506188Y001805879*
X-003496198Y001812559*
X-003354638Y001954118*
X-003249998*
Y001829998*
X-003079998*
Y001859119*
X-002354999*
X-002337437Y001862609*
X-002322558Y001872559*
X-002263858Y001931258*
X-002249998Y001925518*
Y001829998*
X-002079998*
Y001859119*
X-001404998*
X-001387439Y001862609*
X-001372557Y001872559*
X-00126492Y001980189*
X-001249997Y001973897*
Y001829998*
X-001079997*
Y001859119*
X-000354998*
X-000337439Y001862609*
X-000322559Y001872559*
X-000263857Y001931258*
X-000249999Y001925518*
Y001829998*
X-000079999*
Y001859119*
X000333278*
X000350837Y001862609*
X000365729Y001872559*
X000447288Y001954118*
X000749998*
Y001829998*
X000919998*
Y001859119*
X001700707*
X001718269Y001862609*
X001733148Y001872559*
X001736138Y001875538*
X001749999Y001869798*
Y001829998*
X001919998*
Y001859119*
X002686918*
X002704477Y001862609*
X002719369Y001872559*
X002736138Y001889328*
X002749999Y001883587*
Y001829998*
X002919999*
Y001979998*
X002880878*
Y002090099*
X002887438Y002096658*
X002897388Y002111547*
X002900878Y002129109*
Y002167498*
X002897388Y002185057*
X002887438Y002199949*
X002878609Y002208768*
Y002223838*
X002880819Y002229159*
Y002230498*
X002895818Y002236708*
X002964268Y002168258*
G37*
G36*
X-003733868Y001820257D02*
X-003732387Y001816679D01*
X-003718318Y001802607*
Y001787387*
X-003732387Y001773318*
X-003739997Y001754949*
Y001735048*
X-003732387Y001716679*
X-003718318Y001702607*
Y001687388*
X-003732387Y001673318*
X-003739997Y001654949*
Y001635048*
X-003732387Y001616679*
X-003721757Y001606049*
X-003718819Y001599587*
X-003720807Y001587398*
X-003729687Y001578518*
X-003737297Y001560139*
Y001540248*
X-003732369Y001528338*
X-003740749Y001513339*
X-003826659*
Y001748688*
X-003751569Y001823778*
X-003733868Y001820257*
G37*
G36*
X-003416599Y001514789D02*
X-003401707Y001504838D01*
X-003384148Y001501348*
X-003362177*
X-003330478Y001469649*
Y001362199*
X-003344339Y001356459*
X-003568608Y001580728*
X-003573688Y001584119*
X-003569139Y001599117*
X-003500927*
X-003416599Y001514789*
G37*
G36*
X001749999Y000925517D02*
Y000829998D01*
X001919998*
Y000859119*
X002700708*
X002718269Y000862609*
X002733149Y000872558*
X002736138Y000875548*
X002749999Y000869797*
Y000829998*
X002894357*
Y000769998*
X002749999*
Y000684888*
X002656789Y000591677*
X001806168*
X001800428Y000605538*
X001814888Y000619998*
X001919998*
Y000769998*
X001749999*
Y000684888*
X001656788Y000591677*
X000806168*
X000800427Y000605538*
X000814887Y000619998*
X000919998*
Y000769998*
X000749998*
Y000684888*
X000656788Y000591677*
X-000193829*
X-000199567Y000605538*
X-000185107Y000619998*
X-000079999*
Y000769998*
X-000249999*
Y000684888*
X-000343199Y000591677*
X-001108077*
X-001125639Y000588187*
X-001140518Y000578238*
X-001152888Y000565878*
X-001219629*
X-001225369Y000579739*
X-001185108Y000619998*
X-001079997*
Y000769998*
X-001249997*
Y000684888*
X-001369009Y000565878*
X-002219629*
X-002225367Y000579739*
X-002185108Y000619998*
X-002079998*
Y000769998*
X-002249998*
Y000684888*
X-002369009Y000565878*
X-003116709*
X-00311912Y000568289*
Y000619998*
X-003079998*
Y000769998*
X-003238718*
Y000829998*
X-003079998*
Y000859119*
X-002299289*
X-002281727Y000862609*
X-002266848Y000872558*
X-002263858Y000875548*
X-002249998Y000869797*
Y000829998*
X-002079998*
Y000859119*
X-001299288*
X-001281729Y000862609*
X-001266847Y000872558*
X-001263858Y000875548*
X-001249997Y000869797*
Y000829998*
X-001079997*
Y000859119*
X-000299288*
X-000281729Y000862609*
X-000266849Y000872558*
X-000263857Y000875548*
X-000249999Y000869797*
Y000829998*
X-000079999*
Y000859119*
X000689998*
X000707557Y000862609*
X000722439Y000872558*
X000736137Y000886259*
X000749998Y000880518*
Y000829998*
X000919998*
Y000859119*
X001644997*
X001662559Y000862609*
X001677438Y000872558*
X001736138Y000931257*
X001749999Y000925517*
G37*
G36*
X002894357Y000494187D02*
X002884429Y000486039D01*
X002682918*
X002681439Y000501037*
X002693357Y000503407*
X002708239Y000513359*
X002814888Y000619998*
X002894357*
Y000494187*
G37*
G36*
X-003297438Y000487558D02*
X-003282558Y000477608D01*
X-003264999Y000474118*
X-001133878*
X-001116319Y000477608*
X-001106218Y000484357*
X-001096657Y000472709*
X-001135707Y000433659*
X-001157947*
X-001161679Y000437388*
X-001180048Y000444997*
X-001199949*
X-001218318Y000437388*
X-001232387Y000423318*
X-001239997Y000404949*
Y000385048*
X-001232387Y000366679*
X-001218318Y000352607*
X-001199949Y000344998*
X-001180048*
X-001161679Y000352607*
X-001147607Y000366679*
X-001147488Y000366979*
X-001121897*
X-001109139Y000369519*
X-001101829Y000374408*
X-001089929Y000372889*
X-001083787Y000370057*
X-001082387Y000366679*
X-001068318Y000352607*
X-001049949Y000344998*
X-001030048*
X-001023947Y000347527*
X-001012469Y000336049*
X-001014999Y000329948*
Y000310047*
X-001007389Y000291678*
X-000993317Y000277609*
X-000974938Y000269999*
X-000955047*
X-000936678Y000277609*
X-000927628Y000286659*
X000960277*
X000973038Y000289199*
X000980767Y000294358*
X001420578*
X001426329Y000280499*
X001411709Y000265879*
X000635*
X000617438Y000262389*
X000602559Y000252437*
X000530989Y000180878*
X-000295419*
X-000312968Y000177388*
X-000327858Y000167439*
X-000379417Y000115879*
X-001289999*
X-001307558Y000112389*
X-001322438Y000102438*
X-001378999Y000045877*
X-002246569*
X-002264128Y000042387*
X-002279009Y000032438*
X-002360569Y-000049118*
X-003079998*
Y-000019999*
X-003249998*
Y-000169999*
X-003079998*
Y-000140878*
X-002341567*
X-002324008Y-000137388*
X-002309119Y-000127439*
X-002263858Y-000082179*
X-002249998Y-000087919*
Y-000169999*
X-002079998*
Y-000140878*
X-001341569*
X-001324008Y-000137388*
X-001309128Y-000127439*
X-001263858Y-000082179*
X-001249997Y-000087919*
Y-000169999*
X-001079997*
Y-000140878*
X-000341569*
X-000324007Y-000137388*
X-000309118Y-000127439*
X-000263857Y-000082179*
X-000249999Y-000087919*
Y-000169999*
X-000079999*
Y-000140878*
X000658428*
X000675987Y-000137388*
X000690869Y-000127439*
X000736137Y-000082179*
X000749998Y-000087919*
Y-000169999*
X000919998*
Y-000140878*
X001660707*
X001678269Y-000137388*
X001693148Y-000127439*
X001734997Y-000085598*
X001749999Y-000091808*
Y-000169999*
X001919998*
Y-000140878*
X002594998*
X002612557Y-000137388*
X002627439Y-000127439*
X002735079Y-000019809*
X002749999Y-000026098*
Y-000169999*
X002919999*
Y-000019999*
X002880878*
Y000025999*
X002967438Y000112557*
X002970588Y000117269*
X002985589Y000112717*
Y-000275117*
X002933857Y-000326859*
X002919999Y-000321119*
Y-000229999*
X002749999*
Y-000315109*
X002679898Y-000385218*
X001932838*
X001919998Y-000379999*
Y-000229999*
X001749999*
Y-000315109*
X001674088Y-000391017*
X001506339*
X001471099Y-000355777*
X001456217Y-000345828*
X001438658Y-000342338*
X001253048*
X001235489Y-000345828*
X001220609Y-000355777*
X001167269Y-000409117*
X000805367*
X000799627Y-000395259*
X000814887Y-000379999*
X000919998*
Y-000229999*
X000749998*
Y-000315109*
X000670989Y-000394119*
X-000077868*
X-000079999Y-000379999*
Y-000229999*
X-000249999*
Y-000315109*
X-000343999Y-000409117*
X-001194628*
X-001200368Y-000395259*
X-001185108Y-000379999*
X-001079997*
Y-000229999*
X-001249997*
Y-000315109*
X-001344007Y-000409117*
X-002194628*
X-002200368Y-000395259*
X-002185108Y-000379999*
X-002079998*
Y-000229999*
X-002249998*
Y-000315109*
X-002323498Y-000388609*
X-002333068Y-000382209*
X-002350627Y-000378719*
X-003079998*
Y-000229999*
X-003249998*
Y-000347438*
X-003263859Y-000353179*
X-003313719Y-000303319*
Y000484228*
X-003299858Y000489968*
X-003297438Y000487558*
G37*
G36*
X001447629Y-000462079D02*
X001441409Y-000477078D01*
X001365849*
X001353088Y-000479607*
X001342268Y-000486839*
X001211427Y-000617689*
X001204198Y-000628507*
X001201658Y-000641268*
Y-000692627*
X001192608Y-000701677*
X001184998Y-000720049*
Y-000726358*
X001173797Y-000733849*
X001153899*
X001135529Y-000741459*
X001121458Y-000755528*
X001113848Y-000773899*
Y-000793798*
X001121458Y-000812167*
X001135529Y-000826239*
X001153899Y-000833848*
X001173797*
X001192169Y-000826239*
X001198448Y-000819957*
X001205669*
X001211099Y-000821039*
X001258897*
X001271658Y-000818499*
X001282468Y-000811278*
X001333568Y-000760168*
X001340799Y-000749358*
X001343339Y-0007366*
Y-000678649*
X001358338Y-000673079*
X001375049Y-000679998*
X001394947*
X001413319Y-000672388*
X001422369Y-000663338*
X001702869*
X001715617Y-000660798*
X001726438Y-000653569*
X001782079Y-000597938*
X001799468*
X001800049Y-000612698*
X001781677Y-000620308*
X001767608Y-000634377*
X001761578Y-000648939*
X001727558Y-000682957*
X001717608Y-000697849*
X001714119Y-000715408*
Y-000756709*
X001711708Y-000759119*
X001659999*
X001642437Y-000762609*
X001627558Y-000772558*
X001545998Y-000854118*
X001028999*
X001012438Y-000837559*
X000997559Y-000827608*
X000979998Y-000824118*
X000699579*
X000682028Y-000827608*
X000667138Y-000837559*
X000585579Y-000919119*
X000005928*
X-000010629Y-000902558*
X-000025519Y-000892609*
X-000043078Y-000889119*
X-000273489*
X-000291048Y-000892609*
X-000305937Y-000902558*
X-000367438Y-000964059*
X-000375909Y-000976729*
X-000383288Y-000984117*
X-001034427*
X-001050988Y-000967559*
X-001065867Y-000957607*
X-001083429Y-000954117*
X-001246568*
X-001264127Y-000957607*
X-001279009Y-000967559*
X-001302438Y-000990988*
X-001312387Y-001005867*
X-001315877Y-001023429*
Y-001046708*
X-001318287Y-001049119*
X-002079998*
Y-001019997*
X-002249998*
Y-001169997*
X-002079998*
Y-001153289*
X-002068987Y-001143099*
X-002066168Y-001143317*
X-002059218Y-001156098*
X-002064999Y-001170048*
Y-001189949*
X-002060879Y-001199888*
Y-001360109*
X-002064999Y-001370048*
Y-001389948*
X-002057389Y-001408318*
X-002046589Y-001419118*
X-002051217Y-001434119*
X-002116709*
X-002119119Y-001431709*
Y-001379999*
X-002079998*
Y-001229997*
X-002249998*
Y-001379999*
X-002210879*
Y-001434119*
X-002316708*
X-002319119Y-001431709*
Y-000559287*
X-002319759Y-000556039*
X-002307447Y-000541037*
X-002038809*
X-001976277Y-000603567*
X-001965459Y-000610798*
X-001952698Y-000613338*
X-000802368*
X-000793318Y-000622388*
X-000774948Y-000629998*
X-000755048*
X-000736678Y-000622388*
X-000722609Y-000608319*
X-000714999Y-000589948*
Y-000570049*
X-000722609Y-000551677*
X-000736678Y-000537608*
X-000755048Y-000529998*
X-000774948*
X-000793318Y-000537608*
X-000802368Y-000546658*
X-001938888*
X-001970808Y-000514738*
X-001965068Y-000500877*
X-000161168*
X-000154947Y-000515879*
X-000219069Y-000579998*
X-000224939*
X-000243319Y-000587608*
X-000257388Y-000601677*
X-000264998Y-000620049*
Y-000639937*
X-000257388Y-000658319*
X-000243319Y-000672388*
X-000224939Y-000679998*
X-000205049*
X-000186679Y-000672388*
X-000172608Y-000658319*
X-000164998Y-000639937*
Y-000634067*
X-000099159Y-000568228*
X000627519*
X000631677Y-000572389*
X000650049Y-000579998*
X000669947*
X000688319Y-000572389*
X000702388Y-000558319*
X000709998Y-000539948*
Y-000520049*
X000708047Y-000515327*
X000709028Y-000511977*
X000718299Y-000500877*
X001186268*
X001203827Y-000497387*
X001218709Y-000487438*
X001272049Y-000434098*
X001419649*
X001447629Y-000462079*
G37*
G36*
X002868889Y-000612937D02*
X002868157Y-000614159D01*
X002662499*
X002649738Y-000616699*
X002638917Y-000623928*
X001933859Y-001328988*
X001919998Y-001323248*
Y-001229997*
X001749999*
Y-001315107*
X001630989Y-001434119*
X000780369*
X000774628Y-001420258*
X000814887Y-001379999*
X000919998*
Y-001229997*
X000749998*
Y-001315107*
X000630989Y-001434119*
X-000219628*
X-000225369Y-001420258*
X-000185107Y-001379999*
X-000079999*
Y-001229997*
X-000249999*
Y-001315107*
X-000368998Y-001434119*
X-001219629*
X-001225369Y-001420258*
X-001185108Y-001379999*
X-001079997*
Y-001229997*
X-001249997*
Y-001315107*
X-001369009Y-001434119*
X-001978779*
X-001983409Y-001419118*
X-001972609Y-001408318*
X-001964999Y-001389948*
Y-001370048*
X-001969119Y-001360109*
Y-001199888*
X-001964999Y-001189949*
Y-001170048*
X-001970869Y-001155877*
X-001963808Y-001140879*
X-001299288*
X-001281729Y-001137389*
X-001266847Y-001127439*
X-001263858Y-001124447*
X-001249997Y-001130198*
Y-001169997*
X-001079997*
Y-001140879*
X-000299288*
X-000281729Y-001137389*
X-000266849Y-001127439*
X-000263857Y-001124447*
X-000249999Y-001130198*
Y-001169997*
X-000079999*
Y-001140879*
X000680709*
X000698268Y-001137389*
X000713148Y-001127439*
X000734999Y-001105598*
X000749998Y-001111808*
Y-001169997*
X000919998*
Y-001140879*
X001694997*
X001712559Y-001137389*
X001727438Y-001127439*
X001734997Y-001116129*
X001749999Y-001120188*
Y-001169997*
X001919998*
Y-001084889*
X002240528Y-000764359*
X002250478Y-000749467*
X002253968Y-000731908*
Y-000682589*
X002258087Y-000672647*
Y-000652749*
X002250467Y-000634377*
X002236409Y-000620308*
X002218029Y-000612698*
X002218608Y-000597938*
X002860387*
X002868889Y-000612937*
G37*
%LNpcb1-2*%
%LPC*%
G36*
X-002172497Y-001715627D02*
Y-001812498D01*
X-002075629*
X-002082838Y-001785609*
X-002097979Y-001759389*
X-002119388Y-001737979*
X-002145609Y-001722838*
X-002172497Y-001715627*
G37*
G36*
X-002207498D02*
X-002234389Y-001722838D01*
X-002260607Y-001737979*
X-002282019Y-001759389*
X-002297158Y-001785609*
X-002304369Y-001812498*
X-002207498*
Y-001715627*
G37*
G36*
Y-001847499D02*
X-002304369D01*
X-002297158Y-001874387*
X-002282019Y-001900608*
X-002260607Y-001922018*
X-002234389Y-001937158*
X-002207498Y-00194437*
Y-001847499*
G37*
G36*
X-002075629D02*
X-002172497D01*
Y-00194437*
X-002145609Y-001937158*
X-002119388Y-001922018*
X-002097979Y-001900608*
X-002082838Y-001874387*
X-002075629Y-001847499*
G37*
G36*
X001835569Y-002079109D02*
X001818058Y-002082198D01*
X001801959Y-002089708*
X001788337Y-002101128*
X001778149Y-002115687*
X001772069Y-002132388*
X001770519Y-002150099*
X001773598Y-002167597*
X001781119Y-002183709*
X001792538Y-002197318*
X001807098Y-002207519*
X001823798Y-002213599*
X001841507Y-002215149*
X001859008Y-002212058*
X001875119Y-002204549*
X001888728Y-002193119*
X001898929Y-002178568*
X001905007Y-002161857*
X001906549Y-002144158*
X001903468Y-002126658*
X001895957Y-002110549*
X001884527Y-002096927*
X001869968Y-002086739*
X001853267Y-002080658*
X001835569Y-002079109*
G37*
G36*
X001663489Y-002324849D02*
X001645988Y-002327937D01*
X001629879Y-002335448*
X001616268Y-002346878*
X001606069Y-002361427*
X001599999Y-002378138*
X001598449Y-002395839*
X001601528Y-002413337*
X001609039Y-002429449*
X001620469Y-002443068*
X001635028Y-002453259*
X001651728Y-002459339*
X001669427Y-002460889*
X001686938Y-002457797*
X001703039Y-002450289*
X001716659Y-002438869*
X001726849Y-002424308*
X001732927Y-002407607*
X001734479Y-002389898*
X001731388Y-002372398*
X001723877Y-002356289*
X001712457Y-002342677*
X001697898Y-002332479*
X001681198Y-002326398*
X001663489Y-002324849*
G37*
G36*
X000247497Y-003394999D02*
X000179999D01*
Y-003397069*
X000174998Y-003409998*
X000164998*
X000034998*
Y-003441768*
X-000007518*
X-000011678Y-003437608*
X-000030048Y-003429998*
X-000049949*
X-000068318Y-003437608*
X-000082389Y-003451679*
X-000089999Y-003470048*
Y-003489949*
X-000082389Y-003508319*
X-000068318Y-003522388*
X-000049949Y-003529998*
X-000030048*
X-000011678Y-003522388*
X-000007518Y-003518227*
X000034998*
Y-003549997*
X000164998*
X000174998*
X000179999Y-003562929*
Y-003564999*
X000247497*
Y-003479998*
Y-003394999*
G37*
G36*
X-000662498D02*
X-000729998D01*
Y-003462497*
X-000662498*
Y-003394999*
G37*
G36*
X000349999D02*
X000282498D01*
Y-003462497*
X000349999*
Y-003394999*
G37*
G36*
X-000559998D02*
X-000627499D01*
Y-003479998*
Y-003564999*
X-000559998*
Y-003562929*
X-000554997Y-003549997*
X-000544997*
X-000414997*
Y-003518227*
X-000372478*
X-000368317Y-003522388*
X-000349948Y-003529998*
X-000330047*
X-000311678Y-003522388*
X-000297609Y-003508319*
X-000289999Y-003489949*
Y-003470048*
X-000297609Y-003451679*
X-000311678Y-003437608*
X-000330047Y-003429998*
X-000349948*
X-000368317Y-003437608*
X-000372478Y-003441768*
X-000414997*
Y-003409998*
X-000544997*
X-000554997*
X-000559998Y-003397069*
Y-003394999*
G37*
G36*
X000349999Y-003497498D02*
X000282498D01*
Y-003564999*
X000349999*
Y-003497498*
G37*
G36*
X-000662498D02*
X-000729998D01*
Y-003564999*
X-000662498*
Y-003497498*
G37*
G36*
X-000614499Y-003665799D02*
X-000620717Y-003666619D01*
X-000642828Y-003675778*
X-000661819Y-003690338*
X-000676379Y-003709329*
X-000685538Y-003731437*
X-000688657Y-003755158*
Y-003792268*
X-000614499*
Y-003665799*
G37*
G36*
X000284497D02*
Y-003792268D01*
X000358658*
Y-003755158*
X000355539Y-003731437*
X000346379Y-003709329*
X000331817Y-003690338*
X000312828Y-003675778*
X000290718Y-003666619*
X000284497Y-003665799*
G37*
G36*
X000249499D02*
X000243278Y-003666619D01*
X000221167Y-003675778*
X000202178Y-003690338*
X000187619Y-003709329*
X000178457Y-003731437*
X000175338Y-003755158*
Y-003807838*
X000160337Y-003814048*
X000156867Y-003810579*
X000135539Y-003801747*
X000112458*
X000091127Y-003810579*
X000074808Y-003826898*
X000065979Y-003848229*
Y-003871307*
X000074808Y-003892628*
X000091127Y-003908958*
X000112458Y-003917789*
X000135539*
X000156867Y-003908958*
X000166758Y-003899057*
X000184259Y-003902108*
X000187619Y-003910208*
X000202178Y-003929199*
X000221167Y-003943758*
X000243278Y-003952918*
X000249499Y-003953738*
Y-003809768*
Y-003665799*
G37*
G36*
X-000579498D02*
Y-003809768D01*
Y-003953738*
X-000573278Y-003952918*
X-000551169Y-003943758*
X-000532178Y-003929199*
X-000517618Y-003910208*
X-000514258Y-003902108*
X-000496757Y-003899057*
X-000486859Y-003908958*
X-000465538Y-003917789*
X-000442457*
X-000421129Y-003908958*
X-000404809Y-003892628*
X-000395978Y-003871307*
Y-003848229*
X-000404809Y-003826898*
X-000421129Y-003810579*
X-000442457Y-003801747*
X-000465538*
X-000486859Y-003810579*
X-000490339Y-003814048*
X-000505338Y-003807838*
Y-003755158*
X-000508459Y-003731437*
X-000517618Y-003709329*
X-000532178Y-003690338*
X-000551169Y-003675778*
X-000573278Y-003666619*
X-000579498Y-003665799*
G37*
G36*
X000358658Y-003827269D02*
X000284497D01*
Y-003953738*
X000290718Y-003952918*
X000312828Y-003943758*
X000331817Y-003929199*
X000346379Y-003910208*
X000355539Y-003888099*
X000358658Y-003864378*
Y-003827269*
G37*
G36*
X-000614499D02*
X-000688657D01*
Y-003864378*
X-000685538Y-003888099*
X-000676379Y-003910208*
X-000661819Y-003929199*
X-000642828Y-003943758*
X-000620717Y-003952918*
X-000614499Y-003953738*
Y-003827269*
G37*
G36*
X000284497Y-004096039D02*
Y-004207268D01*
X000358668*
Y-004185399*
X000355539Y-004161668*
X000346389Y-004139567*
X000331817Y-004120578*
X000312839Y-004106019*
X000290728Y-004096859*
X000284497Y-004096039*
G37*
G36*
X000249499D02*
X000243278Y-004096859D01*
X000221167Y-004106019*
X000202189Y-004120578*
X000187619Y-004139567*
X000178457Y-004161668*
X000175338Y-004185399*
Y-004207268*
X000249499*
Y-004096039*
G37*
G36*
X-000579498D02*
Y-004207268D01*
X-000505338*
Y-004185399*
X-000508459Y-004161668*
X-000517618Y-004139567*
X-000532188Y-004120578*
X-000551169Y-004106019*
X-000573278Y-004096859*
X-000579498Y-004096039*
G37*
G36*
X-000614499D02*
X-000620727Y-004096859D01*
X-000642828Y-004106019*
X-000661819Y-004120578*
X-000676389Y-004139567*
X-000685538Y-004161668*
X-000688667Y-004185399*
Y-004207268*
X-000614499*
Y-004096039*
G37*
G36*
X000249499Y-004242269D02*
X000175338D01*
Y-004264139*
X000178457Y-004287857*
X000187619Y-004309968*
X000202189Y-004328957*
X000221167Y-004343519*
X000243278Y-004352678*
X000249499Y-004353499*
Y-004242269*
G37*
G36*
X-000505338D02*
X-000579498D01*
Y-004353499*
X-000573278Y-004352678*
X-000551169Y-004343519*
X-000532188Y-004328957*
X-000517618Y-004309968*
X-000508459Y-004287857*
X-000505338Y-004264139*
Y-004242269*
G37*
G36*
X-000614499D02*
X-000688667D01*
Y-004264139*
X-000685538Y-004287857*
X-000676389Y-004309968*
X-000661819Y-004328957*
X-000642828Y-004343519*
X-000620727Y-004352678*
X-000614499Y-004353499*
Y-004242269*
G37*
G36*
X000358668D02*
X000284497D01*
Y-004353499*
X000290728Y-004352678*
X000312839Y-004343519*
X000331817Y-004328957*
X000346389Y-004309968*
X000355539Y-004287857*
X000358668Y-004264139*
Y-004242269*
G37*
G36*
X-001102499Y-000646767D02*
X-001306258D01*
X-001320888Y-000649678*
X-001333299Y-000657959*
X-001384477Y-000709147*
X-001387129Y-000709678*
X-00139954Y-000717958*
X-001407817Y-000730369*
X-001410728Y-000744999*
X-001407817Y-000759627*
X-00139954Y-000772038*
X-001387129Y-000780318*
X-001372499Y-000783229*
X-001366258*
X-001351627Y-000780318*
X-001339227Y-000772038*
X-001290419Y-000723229*
X-001102499*
X-001087869Y-000720318*
X-001075458Y-000712038*
X-001067178Y-000699627*
X-001064267Y-000684999*
X-001067178Y-000670369*
X-001075458Y-000657959*
X-001087869Y-000649678*
X-001102499Y-000646767*
G37*
%LNpcb1-3*%
%LPD*%
G54D11*
X-003059998Y002819999D03*
X-002719999D03*
G54D13*
X000123997Y-003859768D03*
X-000453999D03*
G54D14*
X000266999Y-003809768D03*
X-000596999D03*
G54D15*
X000266999Y-004224769D03*
X-000596999D03*
G54D19*
X-000644999Y-003479998D03*
X-000484997D03*
X000104998D03*
X000264998D03*
G54D20*
X-002164999Y002694998D03*
Y002904998D03*
Y001905D03*
Y000904999D03*
Y-000094998D03*
Y-001094999D03*
X-001164998Y002694998D03*
X000834999D03*
X001834997D03*
X-000164998Y-003304999D03*
X-003164997Y-000094998D03*
Y000904999D03*
Y001905D03*
X-001164998Y002904998D03*
Y001905D03*
Y000904999D03*
Y-000094998D03*
Y-001094999D03*
Y-002094999D03*
X-000164998Y001905D03*
Y000904999D03*
Y-000094998D03*
Y-003094997D03*
Y-001094999D03*
Y-002094999D03*
X000834999Y002904998D03*
Y001905D03*
Y000904999D03*
Y-000094998D03*
Y-001094999D03*
Y-002094999D03*
X001834997Y002904998D03*
Y001905D03*
Y-000094998D03*
Y-001094999D03*
Y000904999D03*
X002834998Y001905D03*
Y000904999D03*
Y-000094998D03*
X-001164998Y-002304999D03*
X-000164998D03*
X000834999D03*
X-003164997Y-000304998D03*
X-002164999D03*
X-001164998D03*
X-000164998D03*
X000834999D03*
X001834997D03*
X002834998D03*
X001834997Y000694999D03*
X-003164997D03*
X-002164999D03*
X-001164998D03*
X-000164998D03*
X000834999D03*
X002834998D03*
X000834999Y-001304998D03*
X-001164998D03*
X001834997D03*
X-000164998D03*
X-002164999D03*
X002834998Y001694997D03*
X001834997D03*
X000834999D03*
X-000164998D03*
X-001164998D03*
X-002164999D03*
X-003164997D03*
G54D21*
X000144998Y-003094997D02*
X000609998Y-002629999D01*
X000649998Y-001479999D02*
X000824999Y-001304998D01*
X000649998Y-001479999D02*
X001649999D01*
X001824997Y-001304998*
X-000349999Y-001479999D02*
X000649998D01*
X002008088Y-000748068D02*
Y-000664608D01*
X001844997Y-001094999D02*
X002208088Y-000731908D01*
Y-000662698*
X001848078Y-000999998D02*
X002109998Y-000738078D01*
X001821149Y-000934999D02*
X002008088Y-000748068D01*
X002109998Y-000738078D02*
Y-000662698D01*
X001908088Y-000664608D02*
X001909998Y-000662698D01*
X001794228Y-000869998D02*
X001908088Y-000756137D01*
Y-000664608*
X002008088D02*
X002009998Y-000662698D01*
X002698899Y-000431098D02*
X002824998Y-000304998D01*
X001698899Y-000431098D02*
X002698899D01*
X002824998Y-000304998D02*
X002834998D01*
X000934999Y-001818429D02*
Y-001704997D01*
X000729998Y-002023427D02*
X000934999Y-001818429D01*
X001034999Y-001905D02*
Y-001704997D01*
X000706899Y-001833097D02*
X000834999Y-001704997D01*
X-001349999Y-001479999D02*
X-001174998Y-001304998D01*
X-001349999Y-001479999D02*
X-000349999D01*
X-002135708D02*
X-001349999D01*
X-001464998Y-002279997D02*
Y-001584289D01*
X-001494289Y-001554998D02*
X-001464998Y-001584289D01*
X-002364999Y-001554998D02*
X-001494289D01*
X-001539999Y-002304999D02*
Y-001649288D01*
X-001569288Y-001619999D02*
X-001539999Y-001649288D01*
X-002399997Y-001619999D02*
X-001569288D01*
X-003601059Y001548287D02*
X-003359599Y00130683D01*
X-003685387Y001548287D02*
X-003601059D01*
X-003687297Y001550197D02*
X-003685387Y001548287D01*
X-003688087Y001418158D02*
X-003619977D01*
X-003689997Y001344998D02*
X-003687287D01*
X-003539998Y-000429999D02*
Y001246248D01*
X-003650378Y001308089D02*
X-003601839D01*
X-003689997Y001420068D02*
X-003688087Y001418158D01*
X-003687287Y001344998D02*
X-003650378Y001308089D01*
X-003601839D02*
X-003539998Y001246248D01*
X-003619977Y001418158D02*
X-003464999Y001263169D01*
X-003528649Y001844997D02*
X-003373648Y001999998D01*
X-002549999*
X-003689997Y001844997D02*
X-003528649D01*
X-003257318Y-000424599D02*
X-003164997D01*
X-003359599Y-000322318D02*
X-003257318Y-000424599D01*
X-003359599Y-000322318D02*
Y00130683D01*
X-002322619Y-000452617D02*
X-002320229Y-000454997D01*
X-003164997Y-000424599D02*
X-002350627D01*
X-002320229Y-000454997D02*
X-001324998D01*
X-003164997Y-000424599D02*
Y-000304998D01*
X-002322619Y-000452617D02*
X-002174999Y-000304998D01*
X-003464999Y-000392628D02*
Y001263169D01*
X-002350627Y-000424599D02*
X-002322619Y-000452617D01*
X-003688087Y001243088D02*
X-003642377D01*
X-003614999Y001215707*
Y-000446918D02*
Y001215707D01*
X-003689997Y001244998D02*
X-003688087Y001243088D01*
X-002364999Y-001450708D02*
Y-000559287D01*
X-002544287Y-000659998D02*
X-002514998Y-000689289D01*
X-002469288Y-000594997D02*
X-002439997Y-000624288D01*
X-003374999Y-000594997D02*
X-002469288D01*
X-002514998Y-001504998D02*
Y-000689289D01*
X-002394287Y-000529998D02*
X-002364999Y-000559287D01*
X-002439997Y-001479999D02*
Y-000624288D01*
X-003327628Y-000529998D02*
X-002394287D01*
X-003401918Y-000659998D02*
X-002544287D01*
X-002364999Y-001450708D02*
X-002335707Y-001479999D01*
X-003284598Y000539597D02*
Y001488658D01*
X-003614999Y-000446918D02*
X-003401918Y-000659998D01*
X-003464999Y-000392628D02*
X-003327628Y-000529998D01*
X-003539998Y-000429999D02*
X-003374999Y-000594997D01*
X-002439997Y-001479999D02*
X-002364999Y-001554998D01*
X-002514998Y-001504998D02*
X-002399997Y-001619999D01*
X-003356457Y001612229D02*
X-003304697D01*
X-003489228Y001744997D02*
X-003356457Y001612229D01*
X-003384148Y001547228D02*
X-003343168D01*
X-003689997Y001644997D02*
X-003481918D01*
X-003304697Y001612229D02*
X-003187468Y001494998D01*
X-003481918Y001644997D02*
X-003384148Y001547228D01*
X-003343168D02*
X-003284598Y001488658D01*
X-003164997Y001524289D02*
X-003135708Y001494998D01*
X-003187468D02*
X-003135708D01*
X-000149598Y-000454997D02*
X-000134599Y-000439999D01*
X000712279Y-000454997D02*
X001186268D01*
X000689998Y-000439999D02*
X000824999Y-000304998D01*
X000697278Y-000439999D02*
X000712279Y-000454997D01*
X-000134599Y-000439999D02*
X000689998D01*
X000697278*
X-000324998Y-000454997D02*
X-000149598D01*
X001729999Y002976567D02*
X001848429Y003094997D01*
X001959998*
X000709937Y003104997D02*
X001287518D01*
X001330799Y003061718*
X001247099Y002904998D02*
X001260388Y002891718D01*
X000834999Y002904998D02*
X001247099D01*
X001295587Y002976719D02*
X001597279D01*
X001252308Y003019999D02*
X001295587Y002976719D01*
X000745149Y003019999D02*
X001252308D01*
X001330799Y003061718D02*
X001552287D01*
X001260388Y002891718D02*
X001667428D01*
X-000880148Y002824998D02*
X000429938D01*
X000709937Y003104997*
X-001075148Y003019999D02*
X-000880148Y002824998D01*
X-000996919Y002736918D02*
X000462069D01*
X-001164998Y002904998D02*
X-000996919Y002736918D01*
X000462069D02*
X000745149Y003019999D01*
X001557289Y003066719D02*
X001559999D01*
X001552287Y003061718D02*
X001557289Y003066719D01*
X-001292499Y002982348D02*
X-001254848Y003019999D01*
X-001412897Y002859999D02*
X-001292499Y002980397D01*
Y002982348*
X-002164999Y002904998D02*
X-002154999D01*
X-002109998Y002859999*
X-001412897*
X-001254848Y003019999D02*
X-001075148D01*
X001649999Y00308229D02*
X001659999Y003092289D01*
X001649999Y003029437D02*
Y00308229D01*
X001597279Y002976719D02*
X001649999Y003029437D01*
X001659999Y003092289D02*
Y003094997D01*
X001667428Y002891718D02*
X001729999Y002954289D01*
X002030709Y002904998D02*
X002059998Y002934289D01*
Y003094997*
X001834997Y002904998D02*
X002030709D01*
X002834998Y002109109D02*
X002854998Y002129109D01*
Y002167498*
X002830819Y002239109D02*
X002832729Y002237188D01*
Y002189769D02*
Y002237188D01*
Y002189769D02*
X002854998Y002167498D01*
X002834998Y001905D02*
Y002109109D01*
X002534998Y002074288D02*
Y002269998D01*
X001609999D02*
X002234999D01*
X001559999Y002219998D02*
X001609999Y002269998D01*
X000147497Y002219998D02*
X001559999D01*
X-000489999Y-003304999D02*
Y-003081919D01*
X-001339999Y-002754998D02*
X-001179997Y-002594998D01*
X-000976919D02*
X-000489999Y-003081919D01*
X-001179997Y-002594998D02*
X-000976919D01*
X001480708Y000269999D02*
X002259998D01*
X001675798Y000545797D02*
X002675798D01*
X000675797D02*
X001675798D01*
X-000324197D02*
X000675797D01*
X-001133878Y000519998D02*
X-001108077Y000545797D01*
X000675797D02*
X000824999Y000694999D01*
X001675798Y000545797D02*
X001824997Y000694999D01*
X-001349999Y000519998D02*
X-001133878D01*
X001698899Y-000431098D02*
X001824997Y-000304998D01*
X-001108077Y000545797D02*
X-000324197D01*
X-000174998Y000694999*
X001693097Y-000436897D02*
X001698899Y-000431098D01*
X-003284598Y000539597D02*
X-003264999Y000519998D01*
X002675798Y000545797D02*
X002824998Y000694999D01*
X-003689997Y001744997D02*
X-003489228D01*
X-003264999Y000519998D02*
X-003135708D01*
X001759999Y-000775708D02*
Y-000715408D01*
X001809998Y-000665408*
Y-000662698*
X001487337Y-000436897D02*
X001693097D01*
X001730707Y-000804999D02*
X001759999Y-000775708D01*
X001438658Y-000388218D02*
X001487337Y-000436897D01*
X001253048Y-000388218D02*
X001438658D01*
X001564998Y-000899998D02*
X001659999Y-000804999D01*
X001730707*
X001694997Y-000869998D02*
X001794228D01*
X001599999Y-000964999D02*
X001694997Y-000869998D01*
X001634998Y-001026507D02*
X001726509Y-000934999D01*
X001821149*
X001694997Y-001058428D02*
X001753428Y-000999998D01*
X001848078*
X000979998Y-000869998D02*
X001009997Y-000899998D01*
X001564998*
X000699579Y-000869998D02*
X000979998D01*
X-000246567Y-000999998D02*
X-000069999D01*
X-000273489Y-000934999D02*
X-000043078D01*
X-000013078Y-000964999*
X-000069999Y-000999998D02*
X-000039999Y-001029997D01*
X000631507*
X-000013078Y-000964999D02*
X000604578D01*
X000631507Y-001029997D02*
X000726508Y-000934999D01*
X000604578Y-000964999D02*
X000699579Y-000869998D01*
X-002014999Y-001379999D02*
Y-001179997D01*
X-000349999Y-001479999D02*
X-000174998Y-001304998D01*
X-003179998Y000919998D02*
X-003164997Y000904999D01*
X001638579Y001294998D02*
X002234999D01*
X001029997Y001194998D02*
X001059997Y001164998D01*
X001508579*
X000672658Y001194998D02*
X001029997D01*
X-000395419Y001034999D02*
X-000300418Y001129997D01*
X-000364998Y000969998D02*
X-000334998Y000999998D01*
X-000299288Y000904999D02*
X-000269999Y000934288D01*
X-001246568Y000999998D02*
X-001069997D01*
X-001164998Y000904999D02*
X-000299288D01*
X-001043078Y001064999D02*
X-001013079Y001034999D01*
X-000395419*
X-001273489Y001064999D02*
X-001043078D01*
X-001069997Y000999998D02*
X-001039997Y000969998D01*
X-000364998*
X-002269998Y000976569D02*
X-002246569Y000999998D01*
X-002053429Y000969998D02*
X-001364998D01*
X-001334998Y000999998*
X-002083429D02*
X-002053429Y000969998D01*
X-001334998Y000999998D02*
Y001003487D01*
X-002246569Y000999998D02*
X-002083429D01*
X-001334998Y001003487D02*
X-001273489Y001064999D01*
X001624998Y001494998D02*
X002624998D01*
X002824998Y001694997*
X001624998Y001494998D02*
X001824997Y001694997D01*
X000624997Y001494998D02*
X001624998D01*
X000624997D02*
X000824999Y001694997D01*
X-000374997Y001494998D02*
X000624997D01*
X-000164998Y-003094997D02*
X000144998D01*
X000674999Y-002454998D02*
X000824999Y-002304999D01*
X-000324998Y-002454998D02*
X000674999D01*
X002859999Y000269999D02*
X002934997Y000194998D01*
Y000144998D02*
Y000194998D01*
X002859999Y000267289D02*
Y000269999D01*
X002834998Y000044998D02*
X002934997Y000144998D01*
X002839288Y000149288D02*
Y000190708D01*
X002759999Y000269999D02*
X002839288Y000190708D01*
X002594998Y-000094998D02*
X002839288Y000149288D01*
X001430708Y000219999D02*
X001480708Y000269999D01*
X001186268Y-000454997D02*
X001253048Y-000388218D01*
X000973488Y-000964999D02*
X001599999D01*
X001634998Y-001029997D02*
Y-001026507D01*
X001694997Y-001094999D02*
Y-001058428D01*
X-000056509Y001064999D02*
X-000026509Y001034999D01*
X-000334998Y001003487D02*
X-000273489Y001064999D01*
X-000334998Y000999998D02*
Y001003487D01*
X-000026509Y001034999D02*
X000604578D01*
X000699579Y001129997*
X001668078Y000194998D02*
X001997339D01*
X001670268Y000100688D02*
X001699577Y000129999D01*
X001726509Y000064998D02*
X001943488D01*
X001618079Y000144998D02*
X001668078Y000194998D01*
X001707067Y-000046357D02*
X001753428Y0D01*
X001916569*
X001699577Y000129999D02*
X001970417D01*
X001661507Y0D02*
X001726509Y000064998D01*
X001916569Y0D02*
X001945878Y-000029309D01*
X000635Y000219999D02*
X001430708D01*
X000684999Y000144998D02*
X001618079D01*
X000609998Y000069999D02*
X000684999Y000144998D01*
X000549998Y000134998D02*
X000635Y000219999D01*
X-000295419Y000134998D02*
X000549998D01*
X002661008Y000269999D02*
X002743829Y000187167D01*
X002568757Y-000029309D02*
X002743829Y000145747D01*
Y000187167*
X-000360418Y000069999D02*
X-000295419Y000134998D01*
X-000338488Y0D02*
X-000268488Y000069999D01*
X000609998*
X-000246567Y0D02*
X000639998D01*
X-000341569Y-000094998D02*
X-000246567Y0D01*
X-002335707Y-001479999D02*
X-002135708D01*
X-001539999Y-002304999D02*
X-001314998Y-002529997D01*
X-000949998*
X-001289999Y-002454998D02*
X-001135707D01*
X-001464998Y-002279997D02*
X-001289999Y-002454998D01*
X-002164999Y-001450708D02*
X-002135708Y-001479999D01*
X-002164999Y-001450708D02*
Y-001304998D01*
X-002549999Y001999998D02*
X-002004999Y002544998D01*
X-000174998Y-003304999D02*
X-000164998D01*
X-000949998Y-002529997D02*
X-000174998Y-003304999D01*
X001729999Y002954289D02*
Y002976567D01*
X000834999Y-001094999D02*
X001694997D01*
X001834997D02*
X001844997D01*
X000946569Y-001029997D02*
X001634998D01*
X000580707Y-002029998D02*
X000706899Y-001903808D01*
Y-001833097*
X000844999Y-002094999D02*
X001034999Y-001905D01*
X000834999Y-002094999D02*
X000844999D01*
X-000053428Y-002029998D02*
X000580707D01*
X-000083428Y-001999998D02*
X-000053428Y-002029998D01*
X-000246567Y-001999998D02*
X-000083428D01*
X-000269999Y-002023427D02*
X-000246567Y-001999998D01*
X-000269999Y-002065708D02*
Y-002023427D01*
X-000299288Y-002094999D02*
X-000269999Y-002065708D01*
X-001164998Y-002094999D02*
X-000299288D01*
X000700709D02*
X000729998Y-002065708D01*
Y-002023427*
X-000164998Y-002094999D02*
X000700709D01*
X-000334998Y-000996508D02*
X-000273489Y-000934999D01*
X-000334998Y-001000709D02*
Y-000996508D01*
X-001053429Y-001029997D02*
X-000364289D01*
X-000334998Y-001000709*
X-001083429Y-000999998D02*
X-001053429Y-001029997D01*
X-00127Y-001023429D02*
X-001246568Y-000999998D01*
X-00127Y-001065707D02*
Y-001023429D01*
X-001299288Y-001094999D02*
X-00127Y-001065707D01*
X-002164999Y-001094999D02*
X-001299288D01*
X-001246568Y-000999998D02*
X-001083429D01*
X000943488Y-000934999D02*
X000973488Y-000964999D01*
X000726508Y-000934999D02*
X000943488D01*
X-000269999Y-001023429D02*
X-000246567Y-000999998D01*
X-000269999Y-001065707D02*
Y-001023429D01*
X-000299288Y-001094999D02*
X-000269999Y-001065707D01*
X-001164998Y-001094999D02*
X-000299288D01*
X000916569Y-000999998D02*
X000946569Y-001029997D01*
X000753427Y-000999998D02*
X000916569D01*
X000717069Y-001036358D02*
X000753427Y-000999998D01*
X000717069Y-001058638D02*
Y-001036358D01*
X000680709Y-001094999D02*
X000717069Y-001058638D01*
X-000164998Y-001094999D02*
X000680709D01*
X001583077Y001034999D02*
X001713077Y001164998D01*
X001508579D02*
X001638579Y001294998D01*
X001939998Y001164998D02*
X001984999Y001119997D01*
X001535498Y001099997D02*
X001665498Y001229997D01*
X001987748*
X001713077Y001164998D02*
X001939998D01*
X001987748Y001229997D02*
X002022749Y001194998D01*
X001919998Y001093078D02*
X001958078Y001054999D01*
X002022749Y001194998D02*
X002305707D01*
X001703077Y001054999D02*
X001741149Y001093078D01*
X001759999Y001019997D02*
X001901149D01*
X001741149Y001093078D02*
X001919998D01*
X001644997Y000904999D02*
X001759999Y001019997D01*
X001901149D02*
X001951149Y000969998D01*
X001984999Y001119997D02*
X002405707D01*
X001609999Y000969998D02*
X001694997Y001054999D01*
X001703077*
X000582869Y001105209D02*
X000672658Y001194998D01*
X-000004787Y001105209D02*
X000582869D01*
X-000029578Y001129997D02*
X-000004787Y001105209D01*
X-000300418Y001129997D02*
X-000029578D01*
X-002269998Y000934288D02*
Y000976569D01*
X-002299289Y000904999D02*
X-002269998Y000934288D01*
X-003164997Y000904999D02*
X-002299289D01*
X002305707Y001194998D02*
X002334999Y001224287D01*
Y001294998*
X001004999Y001099997D02*
X001535498D01*
X000974999Y001129997D02*
X001004999Y001099997D01*
X000699579Y001129997D02*
X000974999D01*
X-000273489Y001064999D02*
X-000056509D01*
X-00127Y000976569D02*
X-001246568Y000999998D01*
X-00127Y000934288D02*
Y000976569D01*
X-001299288Y000904999D02*
X-00127Y000934288D01*
X002405707Y001119997D02*
X002434998Y001149289D01*
Y001294998*
X001958078Y001054999D02*
X002467627D01*
X002534998Y001122367*
Y001294998*
X001951149Y000969998D02*
X002630708D01*
X000973488Y001034999D02*
X001583077D01*
X000943488Y001064999D02*
X000973488Y001034999D01*
X000726508Y001064999D02*
X000943488D01*
X000664999Y001003487D02*
X000726508Y001064999D01*
X-000083428Y000999998D02*
X-000053428Y000969998D01*
X-000246567Y000999998D02*
X-000083428D01*
X-000269999Y000976569D02*
X-000246567Y000999998D01*
X-000269999Y000934288D02*
Y000976569D01*
X000946569Y000969998D02*
X001609999D01*
X000916569Y000999998D02*
X000946569Y000969998D01*
X000753427Y000999998D02*
X000916569D01*
X000729998Y000976569D02*
X000753427Y000999998D01*
X002636908Y001243088D02*
X002659999Y001219997D01*
X002636908Y001243088D02*
Y001293088D01*
X002634998Y001294998D02*
X002636908Y001293088D01*
X002630708Y000969998D02*
X002659999Y000999289D01*
Y001219997*
X002734998Y001168648D02*
X002759999Y001143647D01*
Y001019997D02*
Y001143647D01*
X002734998Y001168648D02*
Y001294998D01*
X002729999Y000934288D02*
Y000989998D01*
X002759999Y001019997*
X002700708Y000904999D02*
X002729999Y000934288D01*
X001834997Y000904999D02*
X002700708D01*
X002834998D02*
Y001294998D01*
X002001918Y002119998D02*
X002405707D01*
X001679999Y002139998D02*
X001981918D01*
X002001918Y002119998*
X001763428Y002009998D02*
X001919998D01*
X001959998Y001969998*
X001609999Y002069998D02*
X001679999Y002139998D01*
X001729999Y001976569D02*
X001763428Y002009998D01*
X001954999Y002074999D02*
X001984999Y002044999D01*
X001653077Y002204999D02*
X002182497D01*
X002202497Y002184999*
X001714997Y002074999D02*
X001954999D01*
X001583077Y002134999D02*
X001653077Y002204999D01*
X001634998Y001994999D02*
X001714997Y002074999D01*
X002305707Y002184999D02*
X002333089Y002212378D01*
X002202497Y002184999D02*
X002305707D01*
X002333089Y002268087D02*
X002334999Y002269998D01*
X002333089Y002212378D02*
Y002268087D01*
X002405707Y002119998D02*
X002434998Y002149289D01*
Y002269998*
X001959998Y001969998D02*
X002630708D01*
X001984999Y002044999D02*
X00250571D01*
X002534998Y002074288*
X000379437Y002134999D02*
X001583077D01*
X001729999Y001934288D02*
Y001976569D01*
X002659999Y001999289D02*
Y002206909D01*
X002636908Y002229998D02*
Y002268087D01*
Y002229998D02*
X002659999Y002206909D01*
X002634998Y002269998D02*
X002636908Y002268087D01*
X002630708Y001969998D02*
X002659999Y001999289D01*
X002736908Y002165377D02*
X002769999Y002132289D01*
X002736908Y002165377D02*
Y002268087D01*
X002769999Y002044999D02*
Y002132289D01*
X002728457Y001946539D02*
Y002003458D01*
X002769999Y002044999*
X002686918Y001905D02*
X002728457Y001946539D01*
X001834997Y001905D02*
X002686918D01*
X002734998Y002269998D02*
X002736908Y002268087D01*
X000434997Y002069998D02*
X001609999D01*
X000934999Y001994999D02*
X001634998D01*
X002357239Y000165679D02*
X002386528Y000194967D01*
X002525679Y000035679D02*
X002639288Y000149288D01*
X001999729Y000100688D02*
X002487978D01*
X001945878Y-000029309D02*
X002568757D01*
X001943488Y000064998D02*
X001972807Y000035679D01*
X002525679*
X002487978Y000100688D02*
X002536578Y000149288D01*
X001970417Y000129999D02*
X001999729Y000100688D01*
X001665688D02*
X001670268D01*
X002359997Y000267289D02*
Y000269999D01*
X001997339Y000194998D02*
X002026648Y000165679D01*
X002359997Y000267289D02*
X002386528Y000240758D01*
X002026648Y000165679D02*
X002357239D01*
X002386528Y000194967D02*
Y000240758D01*
X001634998Y000069999D02*
X001665688Y000100688D01*
X002536578Y000149288D02*
Y000190708D01*
X002459997Y000267289D02*
X002536578Y000190708D01*
X002559999Y000269999D02*
X002639288Y000190708D01*
X000834999Y-000094998D02*
X001660707D01*
X001707067Y-000048638D02*
Y-000046357D01*
X001660707Y-000094998D02*
X001707067Y-000048638D01*
X002639288Y000149288D02*
Y000190708D01*
X002459997Y000267289D02*
Y000269999D01*
X002659999D02*
X002661008D01*
X000709998Y000069999D02*
X001634998D01*
X000753427Y0D02*
X001661507D01*
X001834997Y-000094998D02*
X002594998D01*
X002834998D02*
Y000044998D01*
X000639998Y0D02*
X000709998Y000069999D01*
X-001289999D02*
X-000360418D01*
X000658428Y-000094998D02*
X000753427Y0D01*
X-001359999D02*
X-001289999Y000069999D01*
X-002246569Y0D02*
X-001359999D01*
X-002341567Y-000094998D02*
X-002246569Y0D01*
X-003164997Y-000094998D02*
X-002341567D01*
X-001246568Y0D02*
X-000338488D01*
X-001341569Y-000094998D02*
X-001246568Y0D01*
X-002164999Y-000094998D02*
X-001341569D01*
X-001164998D02*
X-000341569D01*
X-000164998D02*
X000658428D01*
X-002164999Y000904999D02*
X-001299288D01*
X000664999Y000999998D02*
Y001003487D01*
X000635Y000969998D02*
X000664999Y000999998D01*
X-000053428Y000969998D02*
X000635D01*
X000729998Y000944999D02*
Y000976569D01*
X-000164998Y000904999D02*
X000689998D01*
X000729998Y000944999*
X000834999Y000904999D02*
X001644997D01*
X-003164997Y001905D02*
X-002354999D01*
X000122499Y002194999D02*
X000147497Y002219998D01*
X-001389999Y002019998D02*
X-001214998Y002194999D01*
X000122499*
X-001404998Y001905D02*
X-001189997Y002119998D01*
X000364439*
X000379437Y002134999*
X-002239998Y002019998D02*
X-001389999D01*
X-002354999Y001905D02*
X-002239998Y002019998D01*
X-002164999Y001905D02*
X-001404998D01*
X001700707D02*
X001729999Y001934288D01*
X000834999Y001905D02*
X001700707D01*
X000428279Y001999998D02*
X000929998D01*
X000401358Y002064999D02*
X000429999D01*
X000333278Y001905D02*
X000428279Y001999998D01*
X000356359Y002019998D02*
X000401358Y002064999D01*
X-000354998Y001905D02*
X-000239999Y002019998D01*
X000356359*
X000429999Y002064999D02*
X000434997Y002069998D01*
X-001164998Y001905D02*
X-000354998D01*
X000929998Y001999998D02*
X000934999Y001994999D01*
X-000164998Y001905D02*
X000333278D01*
X000824999Y-002304999D02*
X000834999D01*
X-000174998D02*
X-000164998D01*
X-000324998Y-002454998D02*
X-000174998Y-002304999D01*
X-001135707Y-002454998D02*
X-000324998D01*
X-001164998Y-002425707D02*
X-001135707Y-002454998D01*
X-001164998Y-002425707D02*
Y-002304999D01*
X001824997Y-001304998D02*
X001834997D01*
X000824999D02*
X000834999D01*
X-000174998D02*
X-000164998D01*
X-001174998D02*
X-001164998D01*
X001824997Y-000304998D02*
X001834997D01*
X000824999D02*
X000834999D01*
X-000174998D02*
X-000164998D01*
X-000324998Y-000454997D02*
X-000174998Y-000304998D01*
X-001324998Y-000454997D02*
X-000324998D01*
X-001174998Y-000304998D02*
X-001164998D01*
X-001324998Y-000454997D02*
X-001174998Y-000304998D01*
X-002174999D02*
X-002164999D01*
X002824998Y000694999D02*
X002834998D01*
X001824997D02*
X001834997D01*
X000824999D02*
X000834999D01*
X-000174998D02*
X-000164998D01*
X-001174998D02*
X-001164998D01*
X-001349999Y000519998D02*
X-001174998Y000694999D01*
X-002349997Y000519998D02*
X-001349999D01*
X-002174999Y000694999D02*
X-002164999D01*
X-002349997Y000519998D02*
X-002174999Y000694999D01*
X-003135708Y000519998D02*
X-002349997D01*
X-003164997Y000549287D02*
X-003135708Y000519998D01*
X-003164997Y000549287D02*
Y000694999D01*
X002824998Y001694997D02*
X002834998D01*
X001824997D02*
X001834997D01*
X000824999D02*
X000834999D01*
X-000174998D02*
X-000164998D01*
X-000374997Y001494998D02*
X-000174998Y001694997D01*
X-001374998Y001494998D02*
X-000374997D01*
X-001174998Y001694997D02*
X-001164998D01*
X-001374998Y001494998D02*
X-001174998Y001694997D01*
X-002364999Y001494998D02*
X-001374998D01*
X-002174999Y001694997D02*
X-002164999D01*
X-002284999Y001584998D02*
X-002174999Y001694997D01*
X-002284999Y001574998D02*
Y001584998D01*
X-002364999Y001494998D02*
X-002284999Y001574998D01*
X-003135708Y001494998D02*
X-002364999D01*
X-003164997Y001524289D02*
Y001694997D01*
X001824997Y002694998D02*
X001834997D01*
X001674997Y002544998D02*
X001824997Y002694998D01*
X000674999Y002544998D02*
X001674997D01*
X000824999Y002694998D02*
X000834999D01*
X000674999Y002544998D02*
X000824999Y002694998D01*
X-001004999Y002544998D02*
X000674999D01*
X-002164999Y002694998D02*
X-002154999D01*
X-002004999Y002544998*
X-001004999*
X-001164998Y002694998D02*
X-001154998D01*
X-001004999Y002544998*
G54D22*
X-000817819Y-001852178D02*
Y-001577698D01*
Y-001852178D02*
X-000714999Y-001954999D01*
X-000802939Y-001562818D02*
X001747179D01*
X-000817819Y-001577698D02*
X-000802939Y-001562818D01*
X001747179D02*
X002662499Y-000647499D01*
X002894998*
X003164997Y-000377499*
X001768269Y-000564598D02*
X002875399D01*
X002824068Y-000483798D02*
X003018929Y-000288927D01*
X002875399Y-000564598D02*
X003109998Y-000329999D01*
X001751528Y-000524197D02*
X002840799D01*
X003059998Y-000304998*
X001734799Y-000483798D02*
X002824068D01*
X003164997Y-000377499D02*
Y000232897D01*
X002927697Y000470199D02*
X003164997Y000232897D01*
X002884429Y000452699D02*
X003109998Y000227129D01*
Y-000329999D02*
Y000227129D01*
X003018929Y-000288927D02*
Y000192669D01*
X002883898Y000327698D02*
X003018929Y000192669D01*
X002884998Y000394997D02*
X003059998Y000219999D01*
Y-000304998D02*
Y000219999D01*
X002927697Y000470199D02*
Y000971468D01*
X002892699Y001006469D02*
X002927697Y000971468D01*
X002892699Y001006469D02*
Y001318897D01*
X-003859999Y001494878D02*
X-003845118Y001479999D01*
X-003607297D02*
X-003412299Y001284998D01*
X-003845118Y001479999D02*
X-003607297D01*
X-003859999Y001494878D02*
Y001762498D01*
X-003712499Y001909998*
X-003182498Y002819999D02*
X-003059998D01*
X-003202498Y002799999D02*
X-003182498Y002819999D01*
X-003202498Y002067577D02*
Y002799999D01*
X-003217379Y002052698D02*
X-003202498Y002067577D01*
X-003395479Y002052698D02*
X-003217379D01*
X-003538179Y001909998D02*
X-003395479Y002052698D01*
X-003712499Y001909998D02*
X-003538179D01*
X-003412299Y-000344149D02*
Y001284998D01*
Y-000344149D02*
X-003279147Y-000477299D01*
X-002372459*
X-002342057Y-000507697*
X-002024999*
X-001952698Y-000579998*
X-000764999*
X-003059998Y002774998D02*
Y002819999D01*
X-001039997Y000394997D02*
X002884998D01*
X001708177Y-000510418D02*
X001734799Y-000483798D01*
X001384998Y-000629998D02*
X001702869D01*
X001768269Y-000564598*
X001720728Y-000554997D02*
X001751528Y-000524197D01*
X001365849Y-000510418D02*
X001708177D01*
X001378399Y-000554997D02*
X001720728D01*
X001309999Y-0007366D02*
Y-000623399D01*
X001378399Y-000554997*
X001234998Y-000641268D02*
X001365849Y-000510418D01*
X001163848Y-000783849D02*
X001166619Y-000786617D01*
X001211099Y-000787699D02*
X001258897D01*
X001166619Y-000786617D02*
X001210017D01*
X001211099Y-000787699*
X001234998Y-000729998D02*
Y-000641268D01*
X001258897Y-000787699D02*
X001309999Y-0007366D01*
X-001069517Y000452699D02*
X002884429D01*
X002858899Y001352699D02*
X002892699Y001318897D01*
X002211097Y001352699D02*
X002858899D01*
X002206099Y001347698D02*
X002211097Y001352699D01*
X001616748Y001347698D02*
X002206099D01*
X001486748Y001217698D02*
X001616748Y001347698D01*
X001084999Y001217698D02*
X001486748D01*
X000650829Y001247698D02*
X001054999D01*
X001084999Y001217698*
X000561037Y001157909D02*
X000650829Y001247698D01*
X000034998Y001157909D02*
X000561037D01*
X000010208Y001182697D02*
X000034998Y001157909D01*
X-000322249Y001182697D02*
X000010208D01*
X-000399938Y001104999D02*
X-000322249Y001182697D01*
X-000864999Y001104999D02*
X-000399938D01*
X000967978Y000327698D02*
X002883898D01*
X000960277Y000319999D02*
X000967978Y000327698D01*
X-000964999Y000319999D02*
X000960277D01*
X000659998Y-000529998D02*
X000662528Y-000532528D01*
X-001121897Y000400319D02*
X-001069517Y000452699D01*
X-001189997Y000394997D02*
X-001184678Y000400319D01*
X-001121897*
G54D23*
X001787499Y-001612498D02*
X002694998Y-000704999D01*
X002934997*
X-000721997Y-001612498D02*
X001787499D01*
X003002498Y000502498D02*
Y002184097D01*
X002858899Y002327699D02*
X003002498Y002184097D01*
Y000502498D02*
X003234999Y000269999D01*
X-000742497Y-001859498D02*
Y-001632999D01*
X-000721997Y-001612498*
X-000742497Y-001859498D02*
X-000721997Y-001879998D01*
X-000664999*
X-001366258Y-000744999D02*
X-001306258Y-000684999D01*
X-001372499Y-000744999D02*
X-001366258D01*
X-001306258Y-000684999D02*
X-001102499D01*
X-000214998Y-000629998D02*
X-000114998Y-000529998D01*
X000659998*
X002142497Y002755308D02*
Y003129168D01*
X002094169Y003177499D02*
X002142497Y003129168D01*
X001554109Y003177499D02*
X002094169D01*
X001515828Y003139219D02*
X001554109Y003177499D01*
X001379999Y003139219D02*
X001515828D01*
X000677839Y003182498D02*
X001336718D01*
X000397837Y002902498D02*
X000677839Y003182498D01*
X001336718D02*
X001379999Y003139219D01*
X-000848047Y002902498D02*
X000397837D01*
X-001043048Y003097499D02*
X-000848047Y002902498D01*
X-001286949Y003097499D02*
X-001043048D01*
X-001369999Y003014449D02*
X-001286949Y003097499D01*
X-001369999Y003012498D02*
Y003014449D01*
Y003012498D02*
D01*
D01*
X-002251748D02*
X-001369999D01*
X-002330457Y002933788D02*
X-002251748Y003012498D01*
X-002330457Y002898708D02*
Y002933788D01*
X-002409169Y002819999D02*
X-002330457Y002898708D01*
X002129998Y002742808D02*
X002142497Y002755308D01*
X002129998Y002375499D02*
Y002742808D01*
Y002375499D02*
X002150498Y002354999D01*
X002766669*
X002793969Y002327699*
X002858899*
X-000664999Y-001879998D02*
X-000564997Y-001979998D01*
X-000039999Y-003479998D02*
X000104998D01*
X-000484997D02*
X-000339999D01*
X-002719999Y002819999D02*
X-00254D01*
X-002409169*
X003234999Y-000404997D02*
Y000269999D01*
X002934997Y-000704999D02*
X003234999Y-000404997D01*
G54D24*
X-002189998Y-001829998D03*
X-001689999D03*
G54D25*
X001838538Y-002147128D03*
X001666458Y-002392867D03*
G54D26*
X-001657499Y-002167498D03*
X000609998Y-002629999D03*
X000934999Y-001704997D03*
X001034999D03*
X000834999D03*
X-003687297Y001550197D03*
X-003689997Y001344998D03*
Y001420068D03*
X-001102499Y-000684999D03*
X-001372499Y-000744999D03*
X001559999Y003066719D03*
X002830819Y002239109D03*
X002534998Y002269998D03*
X002234999D03*
X000802497Y-003507498D03*
X-000339999Y-003479998D03*
X-000489999Y-003304999D03*
X-001339999Y-002754998D03*
X-000039999Y-003479998D03*
X002259998Y000269999D03*
X-000564997Y-001979998D03*
X-00254Y002819999D03*
X-001039997Y000394997D03*
X002109998Y-000662698D03*
X001909998D03*
X002208088D03*
X001809998D03*
X002009998D03*
X001163848Y-000783849D03*
X001384998Y-000629998D03*
X001234998Y-000729998D03*
X-000764999Y-000579998D03*
X-002014999Y-001179997D03*
X002234999Y001294998D03*
X-000864999Y001104999D03*
X-000714999Y-001954999D03*
X-002014999Y-001379999D03*
X-000964999Y000319999D03*
X000659998Y-000529998D03*
X-001189997Y000394997D03*
X-000214998Y-000629998D03*
X-003689997Y001244998D03*
Y001644997D03*
Y001744997D03*
Y001844997D03*
X001959998Y003094997D03*
X002059998D03*
X002834998Y001294998D03*
X002334999D03*
X002734998D03*
X002634998D03*
X002434998D03*
X002534998D03*
X002334999Y002269998D03*
X002734998D03*
X002634998D03*
X002434998D03*
X002759999Y000269999D03*
X002859999D03*
X002359997D03*
X002459997D03*
X002559999D03*
X002659999D03*
X001659999Y003094997D03*
M02*