M48
;Layer_Color=9474304
;FILE_FORMAT=4:4
METRIC,LZ
;TYPE=PLATED
T01F00S00C0.3000
T02F00S00C0.6000
;TYPE=NON_PLATED
T04F00S00C0.6604
T05F00S00C0.8500
%
T01
X-00034Y-00348
X-00004
X-00049Y-003305
X-000565Y-00198
X-000715Y-001955
X000835Y-001705
X000935
X001035
X00061Y-00263
X0008025Y-0035075
X-00134Y-002755
X-0016575Y-0021675
X-002015Y-00138
Y-00118
X-0013725Y-000745
X-00119Y000395
X-00369Y001245
Y001345
Y00142007
X-0036873Y0015502
X-00369Y001645
Y001745
Y001845
X-000865Y001105
X-000965Y00032
X-00104Y000395
X-0011025Y-000685
X-000765Y-00058
X-000215Y-00063
X00066Y-00053
X00116385Y-00078385
X001235Y-00073
X001385Y-00063
X00181Y-0006627
X00191
X00201
X00211
X00220809
X00226Y00027
X00236
X00246
X00256
X00266
X00276
X002735Y001295
X002835
X002635
X002535
X002435
X002335
X002235
Y00227
X002335
X002435
X002535
X002635
X002735
X00283082Y00223911
X00286Y00027
X00206Y003095
X00196
X00166
X00156Y00306672
X-00254Y00282
T02
X-00219Y-00183
X-00169
T04
X-000454Y-00385977
X000124
T05
X00166646Y-00239287
X00183854Y-00214713
M30
