%FSTAX45Y45*%
%MOMM*%
%SFA1B1*%

%IPPOS*%
%ADD10R,1.099998X1.099998*%
%ADD11R,0.799998X1.699997*%
%ADD12R,1.399997X1.199998*%
%ADD13C,0.660399*%
%ADD14O,1.117598X2.209796*%
%ADD15O,1.117598X1.904996*%
%ADD16C,1.699997*%
%ADD17C,0.524999*%
%ADD18C,0.699999*%
%LNpcb1-1*%
%LPD*%
G54D10*
X-000644999Y-003479998D03*
X-000484997D03*
X000104998D03*
X000264998D03*
G54D11*
X-003059998Y002819999D03*
X-002719999D03*
G54D12*
X-002164999Y002694998D03*
Y002904998D03*
Y001905D03*
Y000904999D03*
Y-000094998D03*
Y-001094999D03*
X-001164998Y002694998D03*
X000834999D03*
X001834997D03*
X-000164998Y-003304999D03*
X-003164997Y-000094998D03*
Y000904999D03*
Y001905D03*
X-001164998Y002904998D03*
Y001905D03*
Y000904999D03*
Y-000094998D03*
Y-001094999D03*
Y-002094999D03*
X-000164998Y001905D03*
Y000904999D03*
Y-000094998D03*
Y-003094997D03*
Y-001094999D03*
Y-002094999D03*
X000834999Y002904998D03*
Y001905D03*
Y000904999D03*
Y-000094998D03*
Y-001094999D03*
Y-002094999D03*
X001834997Y002904998D03*
Y001905D03*
Y-000094998D03*
Y-001094999D03*
Y000904999D03*
X002834998Y001905D03*
Y000904999D03*
Y-000094998D03*
X-001164998Y-002304999D03*
X-000164998D03*
X000834999D03*
X-003164997Y-000304998D03*
X-002164999D03*
X-001164998D03*
X-000164998D03*
X000834999D03*
X001834997D03*
X002834998D03*
X001834997Y000694999D03*
X-003164997D03*
X-002164999D03*
X-001164998D03*
X-000164998D03*
X000834999D03*
X002834998D03*
X000834999Y-001304998D03*
X-001164998D03*
X001834997D03*
X-000164998D03*
X-002164999D03*
X002834998Y001694997D03*
X001834997D03*
X000834999D03*
X-000164998D03*
X-001164998D03*
X-002164999D03*
X-003164997D03*
G54D13*
X000123997Y-003859768D03*
X-000453999D03*
G54D14*
X000266999Y-003809768D03*
X-000596999D03*
G54D15*
X000266999Y-004224769D03*
X-000596999D03*
G54D16*
X-002189998Y-001829998D03*
X-001689999D03*
G54D17*
X001838538Y-002147128D03*
X001666458Y-002392867D03*
G54D18*
X-001657499Y-002167498D03*
X000609998Y-002629999D03*
X000934999Y-001704997D03*
X001034999D03*
X000834999D03*
X-003687297Y001550197D03*
X-003689997Y001344998D03*
Y001420068D03*
X-001102499Y-000684999D03*
X-001372499Y-000744999D03*
X001559999Y003066719D03*
X002830819Y002239109D03*
X002534998Y002269998D03*
X002234999D03*
X000802497Y-003507498D03*
X-000339999Y-003479998D03*
X-000489999Y-003304999D03*
X-001339999Y-002754998D03*
X-000039999Y-003479998D03*
X002259998Y000269999D03*
X-000564997Y-001979998D03*
X-00254Y002819999D03*
X-001039997Y000394997D03*
X002109998Y-000662698D03*
X001909998D03*
X002208088D03*
X001809998D03*
X002009998D03*
X001163848Y-000783849D03*
X001384998Y-000629998D03*
X001234998Y-000729998D03*
X-000764999Y-000579998D03*
X-002014999Y-001179997D03*
X002234999Y001294998D03*
X-000864999Y001104999D03*
X-000714999Y-001954999D03*
X-002014999Y-001379999D03*
X-000964999Y000319999D03*
X000659998Y-000529998D03*
X-001189997Y000394997D03*
X-000214998Y-000629998D03*
X-003689997Y001244998D03*
Y001644997D03*
Y001744997D03*
Y001844997D03*
X001959998Y003094997D03*
X002059998D03*
X002834998Y001294998D03*
X002334999D03*
X002734998D03*
X002634998D03*
X002434998D03*
X002534998D03*
X002334999Y002269998D03*
X002734998D03*
X002634998D03*
X002434998D03*
X002759999Y000269999D03*
X002859999D03*
X002359997D03*
X002459997D03*
X002559999D03*
X002659999D03*
X001659999Y003094997D03*
M02*